<svg id="Capa_1" enable-background="new 0 0 511.996 511.996" height="512" viewBox="0 0 511.996 511.996" width="512" xmlns="http://www.w3.org/2000/svg"><path d="m184.619 338.786h153.721v114.019h-153.721z" fill="#aaa"/><g fill="#cbcbcb"><path d="m176.768 467.644c-8.195 0-14.838-6.643-14.838-14.838v-98.625h29.675v98.625c0 8.195-6.643 14.838-14.837 14.838z"/><path d="m229.587 467.644c-8.195 0-14.838-6.643-14.838-14.838v-98.625h29.675v98.625c.001 8.195-6.642 14.838-14.837 14.838z"/><path d="m282.407 467.644c-8.195 0-14.838-6.643-14.838-14.838v-98.625h29.675v98.625c.001 8.195-6.642 14.838-14.837 14.838z"/><path d="m335.227 467.644c-8.195 0-14.838-6.643-14.838-14.838v-98.625h29.675v98.625c0 8.195-6.643 14.838-14.837 14.838z"/><path d="m306.541 295.37c0-42.033 34.196-76.229 76.229-76.229s76.229 34.196 76.229 76.229-34.196 76.229-76.229 76.229-76.229-34.196-76.229-76.229zm30.027 0c0 25.476 20.726 46.202 46.202 46.202s46.202-20.726 46.202-46.202-20.726-46.202-46.202-46.202c-25.475 0-46.202 20.726-46.202 46.202z"/><path d="m282.504 130.923h155.18v115.794h-155.18z" transform="matrix(-.707 -.707 .707 -.707 481.203 576.96)"/></g><path d="m295.808 91.936h31.174v115.794h-31.174z" fill="#aaa" transform="matrix(-.707 -.707 .707 -.707 425.637 475.971)"/><path d="m463.018 229.577-143.682-143.682 48.439-35.716c11.754-8.667 28.077-7.44 38.403 2.887l89.669 89.669c10.326 10.326 11.553 26.65 2.887 38.403z" fill="#da4a54"/><path d="m356.28 122.839-36.943-36.943 48.434-35.722c11.761-8.658 28.075-7.437 38.405 2.893l36.943 36.943c-10.319-10.329-26.644-11.55-38.405-2.883z" fill="#c32430"/><path d="m129.224 371.599c-42.033 0-76.229-34.196-76.229-76.229s34.196-76.229 76.229-76.229 76.229 34.196 76.229 76.229-34.196 76.229-76.229 76.229zm0-122.431c-25.476 0-46.202 20.726-46.202 46.202s20.726 46.202 46.202 46.202 46.202-20.726 46.202-46.202-20.726-46.202-46.202-46.202z" fill="#cbcbcb"/><path d="m65.635 295.37c0-39.9 30.82-72.75 69.91-75.97-2.08-.17-4.19-.26-6.32-.26-42.03 0-76.23 34.2-76.23 76.23s34.2 76.23 76.23 76.23c2.13 0 4.24-.09 6.32-.26-39.09-3.22-69.91-36.07-69.91-75.97z" fill="#aaa"/><path d="m74.311 130.923h155.18v115.794h-155.18z" fill="#cbcbcb" transform="matrix(.707 -.707 .707 .707 -89.025 162.714)"/><path d="m92.471 174.765h31.174v115.794h-31.174z" fill="#aaa" transform="matrix(.707 -.707 .707 .707 -132.868 144.554)"/><path d="m277.53 161.655h-43.066l-109.728 109.729 37.194 115.487h94.067 94.067l37.194-115.487" fill="#e2dfe2"/><path d="m135.005 216.992c-5.681 5.681-14.893 5.681-20.574 0l-26.435-26.435 20.574-20.574 26.435 26.435c5.682 5.681 5.682 14.892 0 20.574z" fill="#818181"/><path d="m180.072 171.925c-5.681 5.681-14.893 5.681-20.574 0l-26.435-26.435 20.574-20.574 26.435 26.435c5.682 5.681 5.682 14.892 0 20.574z" fill="#818181"/><path d="m192.658 85.895-143.682 143.682-35.716-48.438c-8.667-11.754-7.44-28.077 2.887-38.403l89.669-89.669c10.326-10.326 26.65-11.553 38.403-2.887z" fill="#da4a54"/><path d="m85.919 192.634-36.943 36.943-35.722-48.434c-8.658-11.761-7.437-28.075 2.893-38.405l36.943-36.943c-10.329 10.319-11.55 26.644-2.883 38.405z" fill="#c32430"/><path d="m376.989 216.992c5.681 5.681 14.893 5.681 20.574 0l26.435-26.435-20.574-20.574-26.435 26.435c-5.682 5.681-5.682 14.892 0 20.574z" fill="#818181"/><path d="m331.922 171.925c5.681 5.681 14.893 5.681 20.574 0l26.435-26.435-20.574-20.574-26.435 26.435c-5.682 5.681-5.682 14.892 0 20.574z" fill="#818181"/><circle cx="255.997" cy="257.918" fill="#818181" r="34.948"/><circle cx="350.064" cy="339.797" fill="#818181" r="47.074"/><circle cx="175.964" cy="365.651" fill="#818181" r="56.453"/><circle cx="175.964" cy="365.651" fill="#e2dfe2" r="15.137"/><circle cx="350.064" cy="339.797" fill="#e2dfe2" r="15.137"/><path d="m501.085 137.464-89.645-89.645c-13.045-13.047-33.294-14.569-48.145-3.619l-48.426 35.706c-1.758 1.296-2.863 3.295-3.027 5.473s.631 4.319 2.175 5.864l11.67 11.67-51.269 51.269h-36.843l-51.272-51.272 11.672-11.673c1.545-1.545 2.338-3.686 2.175-5.864-.164-2.178-1.27-4.177-3.028-5.473l-48.424-35.698c-14.845-10.953-35.093-9.431-48.144 3.621l-14.195 14.196c-2.928 2.928-2.928 7.676 0 10.604s7.676 2.928 10.604 0l14.196-14.196c7.765-7.765 19.807-8.672 28.639-2.156l16.112 11.878-124.674 124.673-11.878-16.107c-6.511-8.843-5.605-20.893 2.154-28.652l54.246-54.245c2.928-2.928 2.928-7.675 0-10.604-2.927-2.928-7.675-2.928-10.604 0l-54.246 54.245c-13.041 13.041-14.566 33.29-3.622 48.151l35.711 48.427c1.296 1.758 3.295 2.863 5.473 3.027.188.014.375.021.562.021 1.98 0 3.89-.785 5.302-2.196l11.671-11.672 8.707 8.707c-18.396 15.837-29.159 38.954-29.159 63.437 0 40.203 28.693 74.534 67.62 82.138 4.233 22.432 20.21 40.76 41.285 48.32v26.933c0 12.317 10.016 22.337 22.328 22.337 9.687 0 17.951-6.2 21.039-14.839h10.735c3.087 8.639 11.346 14.839 21.029 14.839 9.687 0 17.951-6.2 21.039-14.839h10.738c3.087 8.637 11.349 14.836 21.034 14.836s17.946-6.199 21.033-14.836h10.739c3.087 8.637 11.349 14.836 21.033 14.836 12.314 0 22.332-10.018 22.332-22.332v-58.948c11.76-1.624 22.33-7.006 30.462-14.897 14.989-.94 29.392-5.88 41.83-14.374 3.42-2.336 4.299-7.001 1.963-10.421-2.334-3.419-7.001-4.299-10.42-1.963-6.588 4.499-13.85 7.773-21.477 9.743 2.407-5.404 3.959-11.264 4.487-17.417 19.362-8.51 32.042-27.627 32.042-49.115 0-16.646-7.645-32.054-20.444-42.136l10.664-10.664c15.631 13.012 24.8 32.325 24.8 52.798 0 13.402-3.879 26.395-11.217 37.575-2.272 3.462-1.308 8.11 2.154 10.383 1.269.833 2.696 1.23 4.108 1.23 2.441 0 4.835-1.191 6.275-3.384 8.947-13.631 13.676-29.47 13.676-45.803 0-24.488-10.764-47.603-29.161-63.432l8.712-8.712 11.671 11.671c1.411 1.411 3.321 2.196 5.301 2.196.187 0 .374-.007.562-.021 2.178-.164 4.177-1.269 5.473-3.027l35.706-48.425c10.95-14.853 9.428-35.101-3.619-48.147zm-120.89 69.254c0-1.882.733-3.652 2.064-4.983l21.126-21.126 9.965 9.965-21.126 21.126c-1.331 1.331-3.1 2.064-4.982 2.064s-3.652-.733-4.983-2.064c-1.331-1.33-2.064-3.1-2.064-4.982zm-18.562-67.86 6.662 6.662-21.126 21.126c-1.331 1.331-3.1 2.064-4.983 2.064-1.882 0-3.651-.733-4.983-2.064-2.747-2.747-2.747-7.218 0-9.965l21.126-21.126zm-25.341-25.341 11.434 11.434-21.126 21.126c-8.594 8.594-8.594 22.578 0 31.172 4.163 4.163 9.699 6.456 15.586 6.456 5.888 0 11.423-2.293 15.586-6.456l21.126-21.126 13.883 13.883-21.126 21.126c-4.163 4.163-6.456 9.699-6.456 15.586s2.293 11.423 6.456 15.586 9.698 6.456 15.586 6.456 11.423-2.293 15.586-6.456l21.126-21.126 11.434 11.434-48.163 48.164-99.096-99.095zm-31.561 280.821h8.142v50.916h-8.142zm-51.469-14.996 42.266-41.493c-.022.64-.049 1.28-.049 1.925 0 15.566 6.563 29.619 17.054 39.568zm-54.139 45.865c2.815-1.097 5.533-2.384 8.139-3.853v23.9h-8.139zm52.804-30.869h8.141v50.916h-8.141zm-12.303-22.622c.191-2.007.298-4.038.298-6.094 0-35.254-28.682-63.936-63.936-63.936-1.381 0-2.748.059-4.108.146l41.803-40.877c1.564 21.986 19.939 39.4 42.316 39.4 23.4 0 42.437-19.037 42.437-42.437 0-1.002-.047-1.992-.116-2.976l43.006 30.977c-11.548 1.862-21.897 7.353-29.825 15.273l.009-.046zm-132.907-107.786 11.477 11.477 14.058 43.64c-4.397 4.132-8.212 8.872-11.305 14.093-17.376-3.858-30.387-19.601-30.387-37.778.001-12.592 6.077-24.208 16.157-31.432zm149.28-33.453c15.131 0 27.441 12.31 27.441 27.441s-12.31 27.441-27.441 27.441-27.441-12.31-27.441-27.441 12.31-27.441 27.441-27.441zm117.171 59.898s-90.646-65.586-91.702-66.381c-7.099-5.343-15.921-8.513-25.469-8.513-11.042 0-21.11 4.243-28.667 11.179l-82.96 81.096-11.055-34.317 104.261-104.261h36.843l104.26 104.26-5.46 16.959c-.017-.007-.034-.014-.051-.022zm-264.558-109.765 21.126 21.126c1.331 1.331 2.064 3.1 2.064 4.982s-.733 3.652-2.064 4.982c-1.331 1.331-3.1 2.064-4.983 2.064-1.882 0-3.651-.733-4.982-2.064l-21.126-21.126zm-58.717 37.512-9.656-13.094 127.88-127.88 13.091 9.65zm38.149-16.943 21.125 21.125c4.163 4.163 9.698 6.456 15.586 6.456s11.423-2.293 15.586-6.456c4.163-4.163 6.456-9.699 6.456-15.586s-2.293-11.423-6.456-15.586l-21.126-21.126.174-.174 13.709-13.709 21.126 21.126c4.163 4.163 9.698 6.456 15.586 6.456s11.423-2.293 15.586-6.456c8.594-8.594 8.594-22.578 0-31.172l-21.126-21.126 11.434-11.434 48.164 48.164-99.096 99.095-48.162-48.162zm65.623-65.624 21.126 21.126c2.747 2.747 2.747 7.218 0 9.965-1.331 1.331-3.101 2.064-4.983 2.064s-3.652-.733-4.983-2.064l-21.125-21.126zm-93.116 159.806c0-20.468 9.168-39.783 24.797-52.803l10.666 10.666c-12.801 10.083-20.448 25.491-20.448 42.137 0 13.459 5.023 26.342 14.144 36.276 6.844 7.454 15.535 12.756 25.095 15.43-1.441 4.741-2.344 9.712-2.639 14.845-29.955-7.682-51.615-34.9-51.615-66.551zm66.497 70.261c0-26.985 21.955-48.94 48.94-48.94s48.94 21.954 48.94 48.94-21.955 48.94-48.94 48.94-48.94-21.954-48.94-48.94zm49.74 94.471c-4.042 0-7.332-3.293-7.332-7.341v-23.525c2.148.219 4.326.331 6.531.331 2.76 0 5.473-.195 8.142-.536v23.73c0 4.048-3.293 7.341-7.341 7.341zm52.803 0c-4.042 0-7.331-3.293-7.331-7.341v-42.973l14.673-14.405v57.377c0 4.049-3.293 7.342-7.342 7.342zm52.811-.003c-4.045 0-7.336-3.291-7.336-7.336v-58.416h14.671v58.416c0 4.045-3.29 7.336-7.335 7.336zm52.805 0c-4.045 0-7.335-3.291-7.335-7.336v-58.416h14.671v58.416c0 4.045-3.291 7.336-7.336 7.336zm14.834-80.752c-21.815 0-39.564-17.748-39.564-39.564 0-21.815 17.748-39.564 39.564-39.564 21.815 0 39.564 17.748 39.564 39.564s-17.749 39.564-39.564 39.564zm71.389-83.976c0 13.55-6.997 25.795-18.097 32.754-2.508-11.473-8.633-21.605-17.121-29.138l7.588-23.569 11.477-11.477c10.078 7.221 16.153 18.837 16.153 31.43zm40.673-77.243-131.316-131.316 13.093-9.654 127.877 127.877zm30.533-41.41-11.879 16.11-124.671-124.671 16.11-11.879c8.836-6.515 20.881-5.609 28.642 2.153l89.645 89.645c7.762 7.762 8.667 19.808 2.153 28.642z"/><path d="m198.617 365.622c0-12.479-10.152-22.631-22.631-22.631s-22.631 10.152-22.631 22.631 10.152 22.631 22.631 22.631 22.631-10.152 22.631-22.631zm-30.266 0c0-4.21 3.425-7.635 7.635-7.635s7.635 3.425 7.635 7.635-3.425 7.635-7.635 7.635-7.635-3.425-7.635-7.635z"/><path d="m350.039 317.143c-12.479 0-22.631 10.152-22.631 22.631s10.152 22.631 22.631 22.631 22.631-10.152 22.631-22.631-10.152-22.631-22.631-22.631zm0 30.266c-4.21 0-7.635-3.425-7.635-7.635s3.425-7.635 7.635-7.635 7.635 3.425 7.635 7.635-3.425 7.635-7.635 7.635z"/></svg>