<svg id="Filled" height="512" viewBox="0 0 512 512" width="512" xmlns="http://www.w3.org/2000/svg"><path d="m448 224h8l16 96h-432l11.54-69.26a32.015 32.015 0 0 1 31.57-26.74h26.32a32 32 0 0 0 27.784-16.123l40.966-71.687a48 48 0 0 1 41.68-24.19h244.14l-40 32z" fill="#f2c837"/><path d="m448 224h-32l-24-80h32z" fill="#e9eef2"/><path d="m24 320h464v32h-464z" fill="#dadcde"/><circle cx="136" cy="352" fill="#606669" r="48"/><circle cx="136" cy="352" fill="#e9eef2" r="16"/><circle cx="376" cy="352" fill="#606669" r="48"/><circle cx="376" cy="352" fill="#e9eef2" r="16"/><path d="m96 272h-48l3.543-21.261a32 32 0 0 1 31.565-26.739h28.892v32a16 16 0 0 1 -16 16z" fill="#ffe76c"/><path d="m432 272h32l-8-48h-40v32a16 16 0 0 0 16 16z" fill="#d13330"/><path d="m256 224h-96l38.678-64.464a32 32 0 0 1 27.44-15.536h29.882z" fill="#e9eef2"/><path d="m208 192v32h-48l19.2-32z" fill="#e09f2c"/><path d="m288 224h96l-17.159-57.195a32 32 0 0 0 -30.65-22.805h-48.191z" fill="#e9eef2"/><path d="m424 144h-32l24 80h32" fill="#e9eef2"/><path d="m179.2 192h28.8v32h-48" fill="#cfab2f"/><path d="m256 224v96h-84.23a47.806 47.806 0 0 0 -27.77-15.33v-64.67a16 16 0 0 1 16-16z" fill="#ffd33a"/><path d="m384 224v80.67a48 48 0 0 0 -43.77 15.33h-52.23v-96z" fill="#ffd33a"/><path d="m24 360h56.581a55.992 55.992 0 0 0 110.838 0h129.162a55.992 55.992 0 0 0 110.838 0h56.581a8 8 0 0 0 8-8v-32a8 8 0 0 0 -8-8h-9.222l-14.886-89.315a8 8 0 0 0 -7.892-6.685h-2.048l-20.738-69.126 35.786-28.627a8 8 0 0 0 -5-14.247h-244.14a56.131 56.131 0 0 0 -48.626 28.221l-40.966 71.687a24.053 24.053 0 0 1 -20.838 12.092h-26.32a39.893 39.893 0 0 0 -39.461 33.425l-10.426 62.575h-9.223a8 8 0 0 0 -8 8v32a8 8 0 0 0 8 8zm112 32a40 40 0 1 1 40-40 40.045 40.045 0 0 1 -40 40zm39.138-80a56.025 56.025 0 0 0 -23.138-13.659v-58.341a8.009 8.009 0 0 1 8-8h88v16h-24a8 8 0 0 0 0 16h24v48zm24.862-112v16h-25.871l9.871-16.451v.451zm8-16h-14.671l12.209-20.348a24.122 24.122 0 0 1 20.58-11.652h21.882v64h-32v-24a8 8 0 0 0 -8-8zm112.581 160h-129.162a55.52 55.52 0 0 0 -4.833-16h138.828a55.52 55.52 0 0 0 -4.833 16zm-24.581-32v-80h80v16h-24a8 8 0 0 0 0 16h24v32a55.8 55.8 0 0 0 -39.138 16zm0-96v-64h40.191a23.853 23.853 0 0 1 22.988 17.1l14.069 46.9zm80 176a40 40 0 1 1 40-40 40.045 40.045 0 0 1 -40 40zm104-64v16h-48.581a55.52 55.52 0 0 0 -4.833-16zm-30.777-96 5.333 32h-22.556a8.009 8.009 0 0 1 -8-8v-24zm-11.976-16h-15.3l-19.2-64h15.3zm-377.816 36.06a23.941 23.941 0 0 1 23.679-20.06h20.89v24a8.009 8.009 0 0 1 -8 8h-38.559zm-4.656 27.94h41.225a24.028 24.028 0 0 0 24-24v-25.432a40.09 40.09 0 0 0 24.159-18.722l40.967-71.686a40.1 40.1 0 0 1 34.734-20.16h221.333l-20 16h-29.193a8 8 0 0 0 -7.663 10.3l23.663 78.876v30.824a24.027 24.027 0 0 0 24 24h25.223l5.333 32h-47.418a56.025 56.025 0 0 0 -23.138-13.659v-74.341h-.013a7.962 7.962 0 0 0 -.324-2.3l-17.158-57.195a39.755 39.755 0 0 0 -38.314-28.505h-48.191a8 8 0 0 0 -8 8v168h-16v-168a8 8 0 0 0 -8-8h-29.882a40.2 40.2 0 0 0 -34.3 19.42l-36.64 61.067a24.04 24.04 0 0 0 -19.178 23.513v56a55.806 55.806 0 0 0 -39.138 16h-47.419zm-22.775 48h53.414a55.52 55.52 0 0 0 -4.833 16h-48.581z"/><path d="m136 328a24 24 0 1 0 24 24 24.027 24.027 0 0 0 -24-24zm0 32a8 8 0 1 1 8-8 8.009 8.009 0 0 1 -8 8z"/><path d="m376 328a24 24 0 1 0 24 24 24.027 24.027 0 0 0 -24-24zm0 32a8 8 0 1 1 8-8 8.009 8.009 0 0 1 -8 8z"/></svg>