<svg height="512" viewBox="0 0 64 64" width="512" xmlns="http://www.w3.org/2000/svg"><g id="Filled_outline" data-name="Filled outline"><path d="m44 28-7-9h-28l-6 12v5h52v-2h4v-4z" fill="#d3843d"/><path d="m55 36h-48v8h50v-4h-2z" fill="#ad6327"/><path d="m57 40h4v4h-4z" fill="#394d5c"/><path d="m55 34h4v6h-4z" fill="#fcf05a"/><path d="m3 36h4v4h-4z" fill="#fcf05a"/><path d="m3 40h4v4h-4z" fill="#394d5c"/><path d="m19 31h-12l4-8h11z" fill="#f4f4e6"/><path d="m30 31h-11l3-8h6z" fill="#fff"/><path d="m41 31h-11l-2-8h7z" fill="#f4f4e6"/><circle cx="17" cy="44" fill="#394d5c" r="6"/><circle cx="46" cy="44" fill="#394d5c" r="6"/><circle cx="17" cy="44" fill="#fcf05a" r="2"/><circle cx="46" cy="44" fill="#fcf05a" r="2"/><path d="m17 41a3 3 0 1 0 3 3 3 3 0 0 0 -3-3zm0 4a1 1 0 1 1 1-1 1 1 0 0 1 -1 1z"/><path d="m46 41a3 3 0 1 0 3 3 3 3 0 0 0 -3-3zm0 4a1 1 0 1 1 1-1 1 1 0 0 1 -1 1z"/><path d="m61 39h-1v-9a1 1 0 0 0 -.868-.991l-14.594-1.947-6.748-8.676a1 1 0 0 0 -.79-.386h-1.1a5.009 5.009 0 0 0 -4.9-4h-16a5.009 5.009 0 0 0 -4.9 4h-1.1a1 1 0 0 0 -.895.553l-6 12a1 1 0 0 0 -.105.447v13a1 1 0 0 0 1 1h7.08a6.991 6.991 0 0 0 13.84 0h15.16a6.991 6.991 0 0 0 13.84 0h8.08a1 1 0 0 0 1-1v-4a1 1 0 0 0 -1-1zm-46-23h16a3 3 0 0 1 2.816 2h-21.632a3 3 0 0 1 2.816-2zm-9 27h-2v-2h2zm0-4h-2v-2h2zm-2-4v-3.764l5.618-11.236h26.893l6.7 8.614a1 1 0 0 0 .658.377l14.131 1.885v2.124h-3a1 1 0 0 0 -1 1v1zm13 14a5 5 0 1 1 5-5 5.006 5.006 0 0 1 -5 5zm29 0a5 5 0 1 1 5-5 5.006 5.006 0 0 1 -5 5zm10-6h-3.08a6.986 6.986 0 0 0 -11.809-4h-9.111v2h7.685a6.937 6.937 0 0 0 -.605 2h-15.16a6.937 6.937 0 0 0 -.605-2h6.685v-2h-8v.111a6.986 6.986 0 0 0 -11.92 3.889h-2.08v-6h46v3a1 1 0 0 0 1 1h1zm0-4v-4h2v4zm4 4h-2v-2h2z"/><path d="m35.8 22.4a1 1 0 0 0 -.8-.4h-24a1 1 0 0 0 -.895.553l-4 8a1 1 0 0 0 .895 1.447h34a1 1 0 0 0 .8-1.6zm-17.493 7.6h-9.689l3-6h8.939zm2.136 0 2.25-6h4.526l1.5 6zm10.338 0-1.5-6h5.219l4.5 6z"/><path d="m44 31h2v2h-2z"/><path d="m48 31h2v2h-2z"/></g></svg>