<svg id="Capa_1" enable-background="new 0 0 512 512" height="512" viewBox="0 0 512 512" width="512" xmlns="http://www.w3.org/2000/svg"><g><g><path d="m291.769 98.119h-182.014c-6.826 0-12.36 5.534-12.36 12.36 0 6.826 5.534 12.36 12.36 12.36l89.144 27.597 92.87-27.597c6.826 0 12.36-5.534 12.36-12.36 0-6.826-5.534-12.36-12.36-12.36z" fill="#958b95"/><path d="m220.123 144.132-21.231 6.311-89.137-27.597c-3.413 0-6.504-1.389-8.739-3.624-2.245-2.235-3.624-5.326-3.624-8.739 0-6.826 5.538-12.363 12.363-12.363h41.597c-6.826 0-12.354 5.538-12.354 12.363 0 3.413 1.38 6.504 3.615 8.739s5.326 3.624 8.739 3.624z" fill="#868086"/><path d="m117.836 354.969-49.372-18.529c-12.051-1.371-21.148-11.563-21.148-23.687v-77.448l21.379-89.796c3.164-13.29 15.039-22.669 28.7-22.669h49.729 168.799c7.727 0 14.994 3.716 19.52 9.99l51.826 71.806 98.124 21.019c11.14 2.383 19.106 12.234 19.106 23.632v63.465c0 16.898-12.354 31.258-29.059 33.778l-129.378 6.3" fill="#e28086"/><path d="m167.977 354.496-50.143.469-49.37-18.526c-12.051-1.371-21.148-11.563-21.148-23.687v-77.446l21.378-89.799c3.164-13.283 15.04-22.666 28.7-22.666h51.394c-13.66 0-25.536 9.383-28.701 22.666l-21.377 89.798v77.446c0 12.124 9.098 22.316 21.148 23.687z" fill="#dd636e"/><path d="m504.499 312.753v13.099c0 16.898-12.354 31.258-29.059 33.778l-36.299 5.483-23.724 1.141h-303.452l-43.502-4.94c-12.051-1.371-21.148-11.563-21.148-23.687v-24.874h60.648l77.666 23.862h165.019l77.657-23.862z" fill="#958b95"/><path d="m137.289 361.314 43.501 4.94h-68.826l-43.502-4.94c-12.051-1.371-21.148-11.563-21.148-23.687v-24.874h60.648l8.178 2.511v22.363c.001 12.124 9.099 22.316 21.149 23.687z" fill="#868086"/><path d="m152.744 160.238v34.596c0 5.413 4.388 9.802 9.802 9.802h65.992c5.413 0 9.802-4.388 9.802-9.802v-34.596c0-5.413-4.388-9.802-9.802-9.802h-65.992c-5.413 0-9.802 4.389-9.802 9.802zm-51.017 1.577-16.447 29.584c-3.302 5.933.993 13.237 7.782 13.237h28.741c5.413 0 9.802-4.388 9.802-9.802v-34.596c0-5.413-4.388-9.802-9.802-9.802h-.731c-8.039 0-15.445 4.351-19.345 11.379zm241.324 28.702-26.263-36.382c-1.674-2.327-4.36-3.698-7.221-3.698h-37.563c-5.413 0-9.802 4.388-9.802 9.802v34.596c0 5.413 4.388 9.802 9.802 9.802h63.826c7.264-.001 11.473-8.23 7.221-14.12z" fill="#726e77"/><path d="m473.004 293.483h31.496v-39.354h-31.496c-4.943 0-8.949 4.007-8.949 8.949v21.456c0 4.942 4.006 8.949 8.949 8.949z" fill="#f1e64d"/><path d="m489.213 293.481h-16.218c-4.94 0-8.941-4.001-8.941-8.941v-21.462c0-4.94 4.001-8.951 8.941-8.951h16.218c-4.94 0-8.95 4.011-8.95 8.951v21.462c0 4.939 4.011 8.941 8.95 8.941z" fill="#ffc250"/><g><g><circle cx="401.705" cy="349.025" fill="#726e77" r="64.855"/><path d="m416.062 412.276c-4.617 1.05-9.424 1.599-14.363 1.599-35.813 0-64.849-29.037-64.849-64.849 0-35.824 29.037-64.861 64.849-64.861 4.939 0 9.746.549 14.363 1.599-28.905 6.537-50.486 32.377-50.486 63.262 0 30.873 21.581 56.712 50.486 63.25z" fill="#535057"/><circle cx="401.705" cy="349.025" fill="#f9f6f9" r="30.598"/><path d="m432.303 349.025c0 16.892-13.695 30.599-30.599 30.599-3.471 0-6.812-.573-9.913-1.658 12.025-4.104 20.674-15.52 20.674-28.941 0-13.433-8.649-24.837-20.674-28.941 3.102-1.086 6.442-1.658 9.913-1.658 16.904 0 30.599 13.695 30.599 30.599z" fill="#dddaec"/></g><g><circle cx="146.499" cy="349.025" fill="#726e77" r="64.855"/><path d="m160.856 412.276c-4.617 1.05-9.424 1.599-14.363 1.599-35.813 0-64.849-29.037-64.849-64.849 0-35.824 29.037-64.861 64.849-64.861 4.939 0 9.746.549 14.363 1.599-28.905 6.537-50.486 32.377-50.486 63.262 0 30.873 21.581 56.712 50.486 63.25z" fill="#535057"/><circle cx="146.499" cy="349.025" fill="#f9f6f9" r="30.598"/><path d="m177.098 349.025c0 16.892-13.695 30.599-30.599 30.599-3.471 0-6.812-.573-9.913-1.658 12.025-4.104 20.674-15.52 20.674-28.941 0-13.433-8.649-24.837-20.674-28.941 3.102-1.086 6.442-1.658 9.913-1.658 16.903 0 30.599 13.695 30.599 30.599z" fill="#dddaec"/></g></g><path d="m18.334 182.043h18.148c5.983 0 10.834 4.851 10.834 10.834v102.037c0 5.983-4.851 10.834-10.834 10.834h-18.148c-5.983 0-10.834-4.851-10.834-10.834v-102.037c0-5.983 4.851-10.834 10.834-10.834z" fill="#726e77"/><path d="m47.324 249.018v45.9c0 5.98-4.85 10.83-10.84 10.83h-18.15c-5.98 0-10.83-4.85-10.83-10.83v-45.9c0 5.99 4.85 10.84 10.83 10.84h18.15c5.99 0 10.84-4.85 10.84-10.84z" fill="#535057"/></g><g><path d="m486.96 218.316-36.47-7.81c-4.051-.871-8.037 1.713-8.904 5.763s1.713 8.037 5.764 8.904l36.474 7.811c6.756 1.443 11.865 6.978 12.953 13.644h-23.773c-9.07 0-16.449 7.379-16.449 16.45v21.456c0 9.07 7.379 16.449 16.449 16.449h23.996v4.271h-37.732c-13.23-17.355-34.106-28.583-57.563-28.583-32.99 0-60.875 22.202-69.547 52.444h-116.117c-8.673-30.242-36.554-52.444-69.541-52.444-23.458 0-44.335 11.228-57.565 28.583h-34.115v-69.074l21.166-88.93c2.375-9.957 11.177-16.91 21.405-16.91h218.53c5.314 0 10.336 2.569 13.439 6.88l51.829 71.8c1.087 1.506 2.694 2.555 4.511 2.944l32.41 6.94c4.05.867 8.037-1.713 8.904-5.764.867-4.05-1.713-8.037-5.764-8.904l-29.588-6.335-50.135-69.452c-5.908-8.208-15.481-13.109-25.607-13.109h-4.917c.394-1.559.626-3.181.626-4.86 0-10.951-8.909-19.86-19.86-19.86h-182.014c-10.951 0-19.86 8.909-19.86 19.86 0 1.899.284 3.73.784 5.471-14.232 2.594-25.822 13.307-29.285 27.823l-9.379 39.409c-3.244-5.178-8.984-8.639-15.532-8.639h-18.149c-10.109-.001-18.334 8.224-18.334 18.333v102.038c0 10.109 8.225 18.333 18.334 18.333h18.148c1.141 0 2.254-.119 3.338-.319v24.691c0 15.952 11.948 29.34 27.794 31.142l9.58 1.087c1.934 6.445 4.765 12.615 8.454 18.335 2.246 3.482 6.888 4.483 10.368 2.238 3.481-2.245 4.483-6.887 2.238-10.368-5.962-9.245-9.113-19.973-9.113-31.025 0-31.628 25.731-57.36 57.36-57.36 31.623 0 57.35 25.731 57.35 57.36 0 31.623-25.727 57.35-57.35 57.35-10.292 0-20.385-2.757-29.187-7.972-3.562-2.112-8.164-.936-10.275 2.629-2.112 3.563-.935 8.164 2.629 10.275 11.115 6.586 23.852 10.068 36.833 10.068 31.214 0 57.872-19.871 67.996-47.626h119.209c10.125 27.756 36.785 47.627 68 47.627 33.404 0 61.581-22.76 69.871-53.583l4.987-.752c20.533-3.108 35.436-20.433 35.436-41.195v-32.367-39.354-4.849c0-14.842-10.532-27.864-25.04-30.964zm-377.205-112.697h182.014c2.68 0 4.86 2.18 4.86 4.86s-2.181 4.86-4.86 4.86h-182.014c-2.68 0-4.86-2.18-4.86-4.86s2.18-4.86 4.86-4.86zm-69.939 189.296c0 1.838-1.496 3.333-3.334 3.333h-18.148c-1.838 0-3.334-1.496-3.334-3.333v-102.038c0-1.838 1.496-3.334 3.334-3.334h18.148c1.838 0 3.334 1.496 3.334 3.334zm29.491 58.943c-8.259-.939-14.487-7.92-14.487-16.238v-17.367h25.304c-3.841 8.825-5.984 18.553-5.984 28.776 0 1.808.07 3.609.203 5.4zm403.697-67.875c-.799 0-1.449-.65-1.449-1.449v-21.456c0-.799.65-1.45 1.449-1.45h23.996v24.354h-23.996zm-254.826 72.77c.43-3.183.672-6.425.672-9.724 0-1.654-.076-3.29-.186-4.916h110.871c-.109 1.625-.185 3.259-.185 4.912 0 3.3.242 6.544.673 9.728zm183.527 47.628c-31.626 0-57.355-25.729-57.355-57.355s25.729-57.355 57.355-57.355 57.355 25.729 57.355 57.355-25.729 57.355-57.355 57.355zm72.616-54.167-.343.052c.048-1.075.082-2.154.082-3.24 0-10.221-2.142-19.948-5.983-28.772h28.923v5.597c0 13.286-9.539 24.374-22.679 26.363z"/><path d="m78.92 204.042c2.979 5.068 8.266 8.094 14.142 8.094h28.741c9.54 0 17.302-7.762 17.302-17.302v-34.596c0-9.541-7.762-17.302-17.302-17.302h-.731c-10.761 0-20.686 5.84-25.903 15.24l-16.443 29.575c-2.857 5.134-2.785 11.224.194 16.291zm12.915-8.999 16.447-29.583c.001-.002.002-.003.002-.005 2.574-4.638 7.474-7.519 12.788-7.519h.731c1.269 0 2.302 1.033 2.302 2.302v34.596c0 1.269-1.033 2.302-2.302 2.302h-28.741c-.532 0-.939-.234-1.21-.695s-.278-.93-.017-1.398z"/><path d="m350.436 203.2c2.819-5.512 2.319-12.054-1.304-17.073l-26.256-36.374c-3.072-4.269-8.048-6.817-13.31-6.817h-37.563c-9.54 0-17.302 7.762-17.302 17.302v34.596c0 9.54 7.762 17.302 17.302 17.302h63.826c6.191 0 11.788-3.424 14.607-8.936zm-80.735-8.366v-34.596c0-1.27 1.032-2.302 2.302-2.302h37.563c.456 0 .869.211 1.141.588l26.263 36.382c.334.463.372.956.111 1.464-.26.508-.681.766-1.252.766h-63.826c-1.27 0-2.302-1.032-2.302-2.302z"/><path d="m245.84 194.834v-34.596c0-9.541-7.762-17.302-17.302-17.302h-65.992c-9.54 0-17.302 7.762-17.302 17.302v34.596c0 9.54 7.762 17.302 17.302 17.302h65.992c9.54 0 17.302-7.761 17.302-17.302zm-85.596 0v-34.596c0-1.27 1.033-2.302 2.302-2.302h65.992c1.27 0 2.302 1.033 2.302 2.302v34.596c0 1.269-1.033 2.302-2.302 2.302h-65.992c-1.269 0-2.302-1.032-2.302-2.302z"/><path d="m222.881 311.524h102.438c4.143 0 7.5-3.358 7.5-7.5s-3.357-7.5-7.5-7.5h-102.438c-4.142 0-7.5 3.358-7.5 7.5s3.358 7.5 7.5 7.5z"/><path d="m286.938 235.015c4.143 0 7.5-3.358 7.5-7.5s-3.357-7.5-7.5-7.5h-24.735c-4.143 0-7.5 3.358-7.5 7.5s3.357 7.5 7.5 7.5z"/><path d="m154.789 220.015c-4.142 0-7.5 3.358-7.5 7.5s3.358 7.5 7.5 7.5h24.736c4.142 0 7.5-3.358 7.5-7.5s-3.358-7.5-7.5-7.5z"/><path d="m401.705 310.927c-21.008 0-38.099 17.091-38.099 38.098s17.091 38.098 38.099 38.098c21.007 0 38.098-17.091 38.098-38.098s-17.091-38.098-38.098-38.098zm0 61.197c-12.736 0-23.099-10.362-23.099-23.098s10.362-23.098 23.099-23.098 23.098 10.362 23.098 23.098-10.362 23.098-23.098 23.098z"/><path d="m146.5 387.124c21.007 0 38.098-17.091 38.098-38.098s-17.091-38.098-38.098-38.098-38.098 17.091-38.098 38.098 17.09 38.098 38.098 38.098zm0-61.197c12.736 0 23.098 10.362 23.098 23.098s-10.362 23.098-23.098 23.098-23.098-10.362-23.098-23.098 10.361-23.098 23.098-23.098z"/></g></g></svg>