<svg enable-background="new 0 0 256 256" height="512" viewBox="0 0 256 256" width="512" xmlns="http://www.w3.org/2000/svg"><g id="Layer_43_1_"><g><g><circle cx="42.102" cy="152.379" fill="#5b5d60" r="23.557"/></g><g><circle cx="197.039" cy="152.379" fill="#5b5d60" r="23.557"/></g><g><path d="m248.132 134.152-25.47-16.273c-4.145-2.649-8.962-4.056-13.881-4.056h-28.216c.4.776.63 1.653.63 2.582 0 3.124-2.556 5.681-5.681 5.681h-8.263c-3.125 0-5.681-2.557-5.681-5.681s2.556-5.681 5.681-5.681h2.484c-12.009-8.296-47.966-29.721-86.667-19.625-25.86 6.746-53.239 13.442-64.695 16.22-3.504.85-6.418 3.263-7.91 6.545l-7.112 15.646c-.561 1.234-.851 2.574-.851 3.93v22.338c0 1.614.411 3.201 1.195 4.612l2.007 3.613c1.211 2.18 3.509 3.532 6.004 3.532h12.367c-3.447-4.097-5.527-9.382-5.527-15.156 0-13.01 10.547-23.557 23.557-23.557s23.557 10.547 23.557 23.557c0 5.773-2.08 11.059-5.527 15.156h118.877c-3.447-4.097-5.527-9.382-5.527-15.156 0-13.01 10.547-23.557 23.557-23.557s23.557 10.547 23.557 23.557c0 5.773-2.08 11.059-5.527 15.156h32.466c3.294 0 5.963-2.67 5.963-5.963v-17.623c-.001-3.968-2.024-7.662-5.367-9.797z" fill="#fc8c48"/></g><g><path d="m31.774 82.244-26.043-2.17c-1.699-.142-3.157 1.199-3.157 2.905v7.197c0 1.61 1.305 2.915 2.915 2.915h26.043c1.61 0 2.915-1.305 2.915-2.915v-5.027c0-1.516-1.162-2.779-2.673-2.905z" fill="#fc8c48"/></g><g><g><path d="m12.385 93.091 5.393 14.409c.199-.06.392-.132.595-.181 2.758-.669 6.446-1.567 10.806-2.636l-4.339-11.593h-12.455z" fill="#5b5d60"/></g></g><g><path d="m18.545 152.379c0-13.505 11.365-24.356 25.053-23.511 11.97.739 21.611 10.651 22.046 22.636.222 6.114-1.891 11.728-5.512 16.031h118.878c-1.905-2.264-3.373-4.901-4.322-7.773l-86.56-7.213c-3.72-.31-6.927-2.738-8.235-6.233l-9.207-24.601c-1.146-3.063-.663-6.497 1.283-9.125l16.848-22.744c-1.909.352-3.823.751-5.748 1.254-25.86 6.746-53.239 13.442-64.695 16.22-3.504.85-6.418 3.263-7.91 6.545l-7.113 15.645c-.561 1.234-.851 2.574-.851 3.93v22.338c0 1.614.411 3.201 1.195 4.612l2.007 3.613c1.211 2.18 3.509 3.532 6.003 3.532h12.367c-3.447-4.097-5.527-9.383-5.527-15.156z" fill="#818182"/></g><g><path d="m253.498 158.829-33.099-9.457c.126.986.198 1.988.198 3.007 0 5.773-2.08 11.059-5.527 15.156h32.466c3.294 0 5.963-2.67 5.963-5.963v-2.743z" fill="#818182"/></g><g><path d="m248.132 134.152-20.439-13.058c-.344 1.134-.534 2.333-.534 3.575v2.066c0 6.817 5.578 12.395 12.395 12.395h12.875c-.917-2.007-2.38-3.754-4.297-4.978z" fill="#9be5f9"/></g><g><path d="m161.569 116.405c0-3.124 2.556-5.681 5.681-5.681h2.481c-4.119-2.844-11.052-7.228-19.951-11.362h-52.402c-1.845 0-3.572.911-4.614 2.434l-8.938 13.063c-1.198 1.751.056 4.128 2.178 4.128h76.195c-.4-.776-.63-1.652-.63-2.582z" fill="#5290db"/></g><g><path d="m175.513 110.724h-8.263c-3.125 0-5.681 2.557-5.681 5.681s2.556 5.681 5.681 5.681h8.263c3.125 0 5.681-2.557 5.681-5.681s-2.556-5.681-5.681-5.681z" fill="#818182"/></g><g><path d="m13.346 120.021h-5.681l-4.313 9.489c-.274.602-.481 1.231-.623 1.873h10.618c3.125 0 5.681-2.557 5.681-5.681s-2.558-5.681-5.682-5.681z" fill="#fc657e"/></g><g><path d="m2.5 148.942v6.835c0 1.614.411 3.201 1.195 4.612l2.007 3.613c1.211 2.18 3.509 3.532 6.003 3.532h12.367c-3.447-4.097-5.527-9.382-5.527-15.156 0-1.168.091-2.314.255-3.437h-16.3z" fill="#fc8c48"/></g><g><path d="m77.811 104.702-5.843 7.888c-1.946 2.628-2.43 6.063-1.283 9.125l9.207 24.601c1.308 3.496 4.515 5.923 8.235 6.233l9.107.759c-2.754-1.517-4.945-3.983-6.089-7.04l-12.786-34.163c-.9-2.403-1.052-4.966-.548-7.403z" fill="#5b5d60"/></g><g><circle cx="42.102" cy="152.379" fill="#fca265" r="12.849"/></g><g><circle cx="197.039" cy="152.379" fill="#fca265" r="12.849"/></g><g><path d="m42.102 178.437c-14.368 0-26.057-11.689-26.057-26.057s11.689-26.058 26.057-26.058 26.058 11.689 26.058 26.058-11.69 26.057-26.058 26.057zm0-47.115c-11.611 0-21.057 9.446-21.057 21.058 0 11.611 9.446 21.057 21.057 21.057s21.058-9.446 21.058-21.057c0-11.612-9.447-21.058-21.058-21.058z"/></g><g><path d="m197.039 178.437c-14.368 0-26.057-11.689-26.057-26.057s11.688-26.058 26.057-26.058 26.058 11.689 26.058 26.058-11.69 26.057-26.058 26.057zm0-47.115c-11.61 0-21.057 9.446-21.057 21.058 0 11.611 9.446 21.057 21.057 21.057s21.058-9.446 21.058-21.057c0-11.612-9.447-21.058-21.058-21.058z"/></g><g><path d="m247.535 170.035h-32.177c-1.381 0-2.5-1.119-2.5-2.5s1.119-2.5 2.5-2.5h32.177c1.909 0 3.463-1.554 3.463-3.463v-17.623c0-3.13-1.574-6.005-4.212-7.69l-25.471-16.272c-3.75-2.396-8.084-3.663-12.535-3.663h-27.587c-1.381 0-2.5-1.119-2.5-2.5s1.119-2.5 2.5-2.5h27.587c5.407 0 10.672 1.539 15.227 4.449l25.471 16.272c4.083 2.608 6.521 7.059 6.521 11.904v17.623c-.001 4.666-3.798 8.463-8.464 8.463z"/></g><g><path d="m178.562 170.035h-117.937c-1.381 0-2.5-1.119-2.5-2.5s1.119-2.5 2.5-2.5h117.937c1.381 0 2.5 1.119 2.5 2.5s-1.119 2.5-2.5 2.5z"/></g><g><path d="m23.375 170.035h-11.67c-3.4 0-6.538-1.846-8.189-4.819l-2.007-3.612c-.987-1.778-1.509-3.792-1.509-5.826v-22.338c0-1.724.362-3.395 1.075-4.964l7.112-15.646c1.822-4.009 5.32-6.903 9.596-7.94 10.746-2.606 38.557-9.402 64.653-16.209 39.032-10.186 74.902 10.486 88.513 19.845 1.138.782 1.425 2.339.643 3.477s-2.338 1.424-3.477.644c-13.043-8.969-47.378-28.787-84.417-19.127-26.134 6.817-53.978 13.622-64.736 16.231-2.773.672-5.042 2.549-6.223 5.149l-7.112 15.646c-.416.913-.627 1.888-.627 2.893v22.338c0 1.187.304 2.361.88 3.397l2.007 3.612c.77 1.386 2.233 2.247 3.818 2.247h11.67c1.381 0 2.5 1.119 2.5 2.5s-1.119 2.502-2.5 2.502z"/></g><g><path d="m31.532 95.591h-26.043c-2.986 0-5.415-2.429-5.415-5.415v-7.197c0-1.51.637-2.962 1.748-3.984s2.616-1.54 4.117-1.412l26.043 2.17c2.785.231 4.966 2.602 4.966 5.396v5.027c-.001 2.986-2.43 5.415-5.416 5.415zm-26.046-13.028c-.13 0-.222.058-.278.11-.061.056-.134.155-.134.305v7.197c0 .229.186.415.415.415h26.043c.229 0 .415-.186.415-.415v-5.027c0-.214-.167-.396-.38-.414l-26.043-2.17c-.013 0-.026-.001-.038-.001z"/></g><g><g><path d="m17.454 109.132c-1.013 0-1.966-.62-2.342-1.624l-4.516-12.065c-.484-1.293.172-2.734 1.465-3.218 1.295-.484 2.733.171 3.218 1.465l4.516 12.065c.484 1.293-.172 2.734-1.465 3.218-.289.108-.585.159-.876.159z"/></g><g><path d="m28.811 106.201c-1.013 0-1.966-.62-2.342-1.624l-3.418-9.134c-.484-1.293.172-2.734 1.465-3.218 1.294-.484 2.733.172 3.218 1.465l3.418 9.134c.484 1.293-.172 2.734-1.465 3.218-.29.107-.585.159-.876.159z"/></g></g><g><path d="m88.269 200.5h2.3v2.3c0 1.8 1.4 3.2 3.2 3.2 1.7 0 3.2-1.4 3.2-3.1v-.1-2.3h2.3c1.8 0 3.2-1.4 3.2-3.2 0-1.7-1.4-3.2-3.1-3.2h-.1-2.3v-2.3c0-1.8-1.4-3.2-3.2-3.2-1.7 0-3.2 1.4-3.2 3.1v.1 2.3h-2.3c-1.8 0-3.2 1.4-3.2 3.2-.1 1.7 1.3 3.2 3.2 3.2-.1 0-.1 0 0 0z" fill="#70d6f9"/></g><g><circle cx="209.669" cy="69.4" fill="#87d147" r="3.4"/></g><g><path d="m76.775 65.2c-3.1-.6-5.6-3-6.2-6.1 0-.1-.3-.1-.3 0-.6 3.1-3.1 5.5-6.2 6.1-.1 0-.1.2 0 .3 3.1.6 5.6 3 6.2 6.1 0 .1.3.1.3 0 .6-3.1 3.1-5.5 6.2-6.1.1-.1.1-.3 0-.3z" fill="#fc657e"/></g><g><circle cx="119.669" cy="209.6" fill="#f5c84c" r="3.4"/></g><g><path d="m237.65 91.2c4.5-.8 8-4.3 8.9-8.7 0-.2.4-.2.4 0 .9 4.4 4.4 7.9 8.9 8.7.2 0 .2.3 0 .4-4.5.8-8 4.3-8.9 8.7 0 .2-.4.2-.4 0-.9-4.4-4.4-7.9-8.9-8.7-.2-.1-.2-.4 0-.4z" fill="#f5c84c"/></g><g><path d="m174.071 162.21c-.069 0-.14-.003-.211-.009l-85.941-7.162c-4.66-.388-8.73-3.469-10.369-7.849l-9.207-24.601c-1.449-3.872-.845-8.167 1.616-11.489l16.339-22.058c.822-1.108 2.387-1.342 3.497-.521 1.109.822 1.342 2.387.521 3.497l-16.339 22.057c-1.448 1.955-1.803 4.482-.951 6.76l9.207 24.601c.964 2.577 3.359 4.39 6.101 4.619l85.942 7.162c1.376.114 2.398 1.323 2.283 2.699-.108 1.307-1.202 2.294-2.488 2.294z"/></g><g><path d="m252.379 161.009c-.228 0-.458-.031-.688-.097l-31.173-8.906c-1.328-.379-2.097-1.763-1.718-3.091.38-1.328 1.762-2.098 3.091-1.717l31.173 8.906c1.328.379 2.097 1.763 1.718 3.091-.314 1.098-1.315 1.814-2.403 1.814z"/></g><g><path d="m251.667 141.629h-12.113c-8.213 0-14.895-6.682-14.895-14.895v-2.065c0-1.13.131-2.264.391-3.368.314-1.344 1.662-2.177 3.004-1.864 1.345.315 2.179 1.66 1.863 3.004-.171.731-.258 1.48-.258 2.228v2.065c0 5.456 4.438 9.895 9.895 9.895h12.113c1.381 0 2.5 1.119 2.5 2.5s-1.119 2.5-2.5 2.5z"/></g><g><path d="m161.569 121.488h-75.565c-1.912 0-3.653-1.05-4.545-2.741s-.775-3.722.305-5.299l8.938-13.063c1.509-2.206 4.005-3.522 6.678-3.522h52.152c1.381 0 2.5 1.119 2.5 2.5s-1.119 2.5-2.5 2.5h-52.154c-1.021 0-1.975.503-2.551 1.345l-8.938 13.063c-.023.034-.047.069-.008.143s.082.074.123.074h75.565c1.381 0 2.5 1.119 2.5 2.5s-1.119 2.5-2.5 2.5z"/></g><g><path d="m175.514 124.586h-8.264c-4.511 0-8.181-3.67-8.181-8.181s3.67-8.181 8.181-8.181h8.264c4.511 0 8.181 3.67 8.181 8.181s-3.671 8.181-8.181 8.181zm-8.264-11.362c-1.754 0-3.181 1.427-3.181 3.181s1.427 3.181 3.181 3.181h8.264c1.754 0 3.181-1.427 3.181-3.181s-1.427-3.181-3.181-3.181z"/></g><g><path d="m13.346 133.883h-9.502c-1.381 0-2.5-1.119-2.5-2.5s1.119-2.5 2.5-2.5h9.501c1.754 0 3.181-1.427 3.181-3.181s-1.427-3.181-3.181-3.181h-4.637c-1.381 0-2.5-1.119-2.5-2.5s1.119-2.5 2.5-2.5h4.638c4.511 0 8.181 3.67 8.181 8.181s-3.67 8.181-8.181 8.181z"/></g><g><path d="m17.75 151.442h-14.375c-1.381 0-2.5-1.119-2.5-2.5s1.119-2.5 2.5-2.5h14.375c1.381 0 2.5 1.119 2.5 2.5s-1.12 2.5-2.5 2.5z"/></g><g><path d="m97.011 155.684c-.423 0-.852-.107-1.245-.333-3.198-1.841-5.671-4.755-6.963-8.207l-12.786-34.163c-1.024-2.736-1.26-5.727-.683-8.649.268-1.354 1.582-2.235 2.938-1.968 1.354.268 2.235 1.583 1.968 2.938-.398 2.011-.239 4.06.46 5.926l12.786 34.163c.885 2.366 2.581 4.363 4.774 5.625 1.196.689 1.608 2.217.92 3.414-.462.804-1.304 1.254-2.169 1.254z"/></g><g><path d="m42.102 167.729c-8.463 0-15.349-6.886-15.349-15.349 0-8.464 6.886-15.35 15.349-15.35 8.464 0 15.35 6.886 15.35 15.35 0 8.463-6.886 15.349-15.35 15.349zm0-25.699c-5.707 0-10.349 4.643-10.349 10.35s4.643 10.349 10.349 10.349c5.707 0 10.35-4.643 10.35-10.349 0-5.708-4.643-10.35-10.35-10.35z"/></g><g><path d="m197.039 167.729c-8.463 0-15.349-6.886-15.349-15.349 0-8.464 6.886-15.35 15.349-15.35 8.464 0 15.35 6.886 15.35 15.35 0 8.463-6.886 15.349-15.35 15.349zm0-25.699c-5.706 0-10.349 4.643-10.349 10.35s4.643 10.349 10.349 10.349c5.707 0 10.35-4.643 10.35-10.349 0-5.708-4.643-10.35-10.35-10.35z"/></g></g></g></svg>