<?xml version="1.0" encoding="iso-8859-1"?>
<!-- Generator: Adobe Illustrator 19.0.0, SVG Export Plug-In . SVG Version: 6.00 Build 0)  -->
<svg version="1.1" id="Capa_1" xmlns="http://www.w3.org/2000/svg" xmlns:xlink="http://www.w3.org/1999/xlink" x="0px" y="0px"
	 viewBox="0 0 511.999 511.999" style="enable-background:new 0 0 511.999 511.999;" xml:space="preserve">
<path style="fill:#E2EFFA;" d="M414.504,504.468H130.419v-50.533h315.645v18.973C446.064,490.338,431.934,504.468,414.504,504.468z"
	/>
<path style="fill:#CADDEA;" d="M398.861,453.935v50.533h15.643c17.43,0,31.56-14.13,31.56-31.56v-18.973H398.861z"/>
<path style="fill:#5D6D7D;" d="M38.792,133.324l22.158-4.514c33.071-6.738,52.852-40.827,42.291-72.882l0,0l0,0
	C91.777,27.228,64.255,8.171,33.357,7.536l0,0C20.726,7.277,11.189,18.917,13.928,31.25L38.792,133.324z"/>
<path style="fill:#50616D;" d="M103.242,55.928L103.242,55.928C91.777,27.228,64.255,8.171,33.357,7.536l0,0
	c-6.628-0.136-12.4,3.007-15.998,7.805c16.824,8.227,30.445,22.485,37.675,40.586l22.048,66.923
	C100.036,110.113,111.942,82.338,103.242,55.928z"/>
<path style="fill:#35495D;" d="M189.328,436.357l-79.153,17.578L37.76,128.595c-3.199-14.404,7.94-27.999,22.691-27.696l21.59,0.443
	c22.999,0.472,43.484,14.657,52.017,36.019l8.011,20.053c17.592,44.037,28.607,90.423,32.692,137.667L189.328,436.357z"/>
<path style="fill:#2A3A4C;" d="M87.357,137.361l8.011,20.053c17.592,44.037,28.607,90.423,32.692,137.667l15.906,151.349
	l45.363-10.074L174.76,295.082c-4.085-47.244-15.1-93.63-32.692-137.667l-8.011-20.053c-8.534-21.362-29.019-35.547-52.017-36.019
	L60.45,100.9c-3.975-0.082-7.684,0.853-10.925,2.534C66.479,108.153,80.631,120.525,87.357,137.361z"/>
<path style="fill:#35495D;" d="M419.181,358.929l-285.06,37.416c-16.036,2.105-28.106,16.987-28.106,34.656l0,0
	c0,19.277,14.285,34.905,31.907,34.905H471.17c15.12,0,27.377-13.409,27.377-29.949l0,0
	C498.546,389.447,461.394,353.389,419.181,358.929z"/>
<path style="fill:#2A3A4C;" d="M419.181,358.929l-18.986,2.492c29.262,9.301,51.148,38.839,51.148,74.536l0,0
	c0,16.54-12.257,29.949-27.377,29.949h47.203c15.12,0,27.376-13.409,27.376-29.949l0,0
	C498.546,389.447,461.394,353.389,419.181,358.929z"/>
<path style="fill:#D0D1D2;" d="M124.985,504.468h60.624l-23.659-101.73c-4.19-18.781-22.811-30.609-41.591-26.419l0,0
	c-18.774,4.188-30.602,22.799-26.422,41.575l18.444,76.642C113.782,500.362,118.993,504.468,124.985,504.468z"/>
<path style="fill:#BFC0C1;" d="M161.949,402.738c-4.19-18.781-22.811-30.609-41.591-26.419l0,0
	c-6.269,1.399-11.758,4.412-16.141,8.496c4.991,4.634,8.682,10.773,10.278,17.923l23.659,101.729h47.454L161.949,402.738z"/>
<path d="M476.941,369.752c-16.625-14.585-37.491-21.077-58.74-18.291l-226.983,29.793l-8.959-86.883
	c-4.157-47.996-15.325-95.014-33.196-139.75l-8.011-20.053c-6.298-15.766-18.287-28.042-33.078-34.843
	c6.517-14.471,7.464-30.851,2.422-46.153c-0.048-0.147-0.101-0.293-0.159-0.437C97.622,21.557,67.506,0.703,33.511,0.005
	c-8.32-0.164-16.168,3.434-21.458,9.891c-5.291,6.458-7.287,14.836-5.478,22.987c0.011,0.05,0.023,0.1,0.034,0.15l24.865,102.074
	c0.013,0.055,0.039,0.104,0.053,0.158l50.412,226.484c0.904,4.059,4.925,6.62,8.99,5.716c4.06-0.904,6.619-4.928,5.716-8.99
	L45.112,126.961c-1.02-4.594,0.106-9.316,3.088-12.956c2.983-3.64,7.398-5.65,12.095-5.576l21.59,0.443
	c4.458,0.091,8.801,0.775,12.944,1.983c0.203,0.071,0.408,0.135,0.614,0.188c14.183,4.334,25.928,14.866,31.619,29.112l8.011,20.053
	c17.33,43.382,28.158,88.978,32.183,135.522c0.003,0.041,0.007,0.082,0.011,0.124l9.007,87.361l-14.305,1.877
	c-9.679-13.01-26.432-19.876-43.251-16.126c-22.793,5.086-37.21,27.769-32.136,50.564c0.01,0.041,0.02,0.083,0.029,0.126
	l18.445,76.641c2.224,9.246,10.419,15.702,19.928,15.702l0,0h289.519c21.377,0,38.792-17.25,39.078-38.56h17.587
	c19.249,0,34.908-16.815,34.908-37.482C506.078,410.128,495.458,385.997,476.941,369.752z M93.548,95.051
	c-3.697-0.734-7.491-1.16-11.352-1.239l-21.59-0.443c-8.161-0.183-15.926,2.905-21.714,8.536L21.267,29.551
	c-0.776-3.586,0.111-7.267,2.438-10.107c2.341-2.858,5.831-4.437,9.497-4.378C61.057,15.639,85.743,32.68,96.16,58.503
	C100.103,70.661,99.124,83.701,93.548,95.051z M124.985,496.935c-2.521,0-4.692-1.711-5.281-4.161l-18.429-76.575
	c-3.232-14.672,6.054-29.255,20.724-32.528c14.691-3.278,29.32,6.01,32.615,20.774l21.51,92.49L124.985,496.935L124.985,496.935z
	 M471.17,458.375h-84.951c-4.16,0-7.532,3.372-7.532,7.532s3.372,7.532,7.532,7.532h52.299
	c-0.285,13.003-10.944,23.496-24.014,23.496H191.59l-5.464-23.496h165.045c4.16,0,7.532-3.372,7.532-7.532s-3.372-7.532-7.532-7.532
	H182.622l-13.321-57.277c-0.129-0.579-0.277-1.149-0.429-1.717l251.289-32.983c16.891-2.219,33.528,2.996,46.844,14.677
	c15.257,13.386,24.008,33.39,24.008,54.882C491.013,448.319,482.112,458.375,471.17,458.375z"/>
<g>
</g>
<g>
</g>
<g>
</g>
<g>
</g>
<g>
</g>
<g>
</g>
<g>
</g>
<g>
</g>
<g>
</g>
<g>
</g>
<g>
</g>
<g>
</g>
<g>
</g>
<g>
</g>
<g>
</g>
</svg>
