<svg height="496pt" viewBox="-56 0 496 496" width="496pt" xmlns="http://www.w3.org/2000/svg"><path d="m312 440-7.039062 48h-80.960938l8-48h68.320312c3.917969 0 7.679688-.480469 11.28125-1.519531zm0 0" fill="#969faa"/><path d="m83.679688 440h68.320312l8 48h-80.960938l-7.039062-48 .398438-1.519531c3.601562 1.039062 7.363281 1.519531 11.28125 1.519531zm0 0" fill="#969faa"/><path d="m232 440-8 48h-64l-8-48zm0 0" fill="#969faa"/><g fill="#cf9e76"><path d="m353.039062 380.71875-9.039062 11.28125h-.238281c-.160157-1.441406-.402344-2.878906-.640625-4.238281l-2-10.160157-9.28125-46.320312c-1.441406-7.359375-6.238282-13.441406-12.640625-16.640625-3.277344-1.679687-6.960938-2.640625-10.878907-2.640625h-12.320312v-24l33.039062-19.839844.5625-.320312c4.160157-2.480469 8.957032-3.839844 13.839844-3.839844 10.160156 0 19.4375 5.761719 24 14.800781 5.597656 11.277344 8.558594 23.757813 8.558594 36.398438 0 11.921875-2 23.679687-5.921875 34.722656-3.839844 11.117187-9.597656 21.519531-17.039063 30.796875zm0 0"/><path d="m88 288v24h-12.320312c-3.917969 0-7.601563.960938-10.878907 2.640625-6.402343 3.199219-11.199219 9.28125-12.640625 16.640625l-9.28125 46.320312-2 10.160157c-.238281 1.359375-.480468 2.796875-.640625 4.238281h-.238281l-9.039062-11.28125c-7.441407-9.277344-13.199219-19.679688-17.039063-30.796875-3.921875-11.042969-5.921875-22.800781-5.921875-34.722656 0-12.640625 2.960938-25.121094 8.558594-36.398438 4.5625-9.039062 13.839844-14.800781 24-14.800781 4.882812 0 9.679687 1.359375 13.839844 3.839844l.640624.398437zm0 0"/><path d="m348.640625 127.519531c2.238281 5.601563 3.359375 11.601563 3.359375 17.601563 0 25.757812-3.441406 51.519531-10.238281 76.398437l-12.722657 46.640625-33.039062 19.839844v-12.71875c0-7.203125-2.878906-14.160156-8-19.28125 5.121094-5.121094 8-12.078125 8-19.28125v-9.4375c0-7.203125-2.878906-14.160156-8-19.28125 5.121094-5.121094 8-12.078125 8-19.28125v-14.078125c0-14.480469-5.761719-28.402344-16-38.640625l23.121094-40.480469.878906.480469c19.359375 0 36.71875 11.761719 43.921875 29.679688zm0 0"/><path d="m80.878906 95.519531 23.121094 40.480469c-10.238281 10.238281-16 24.160156-16 38.640625v14.078125c0 7.203125 2.878906 14.160156 8 19.28125-5.121094 5.121094-8 12.078125-8 19.28125v9.4375c0 7.203125 2.878906 14.160156 8 19.28125-5.121094 5.121094-8 12.078125-8 19.28125v12.71875l-32.960938-19.761719-12.800781-46.71875c-6.796875-24.878906-10.238281-50.640625-10.238281-76.398437 0-6 1.121094-12 3.359375-17.601563l.71875-1.839843c7.203125-17.917969 24.5625-29.679688 43.921875-29.679688zm0 0"/></g><path d="m341.121094 377.601562 2 10.160157c.238281 1.359375.480468 2.796875.640625 4.238281.160156 1.441406.238281 2.878906.238281 4.320312 0 12.078126-4.878906 23.039063-12.800781 30.878907-5.277344 5.359375-12.078125 9.359375-19.597657 11.28125-3.601562 1.039062-7.363281 1.519531-11.28125 1.519531h-216.640624c-3.917969 0-7.679688-.480469-11.28125-1.519531-18.636719-4.878907-32.398438-21.921875-32.398438-42.160157 0-1.441406.078125-2.878906.238281-4.320312.160157-1.441406.402344-2.878906.640625-4.238281l2-10.160157c25.519532 14.078126 53.199219 23.519532 81.839844 27.679688 11.839844 1.839844 23.761719 2.71875 35.761719 2.71875h63.039062c12 0 23.921875-.878906 35.761719-2.71875 28.640625-4.160156 56.320312-13.601562 81.839844-27.679688zm0 0" fill="#b27946"/><path d="m331.839844 331.28125 9.28125 46.320312c-25.519532 14.078126-53.199219 23.519532-81.839844 27.679688 28.398438-23.761719 49.277344-55.203125 59.917969-90.640625 6.402343 3.199219 11.199219 9.28125 12.640625 16.640625zm0 0" fill="#ecc19c"/><path d="m64.800781 314.640625c10.640625 35.4375 31.519531 66.878906 59.917969 90.640625-28.640625-4.160156-56.320312-13.601562-81.839844-27.679688l9.28125-46.320312c1.441406-7.359375 6.238282-13.441406 12.640625-16.640625zm0 0" fill="#ecc19c"/><path d="m319.199219 314.640625c-10.640625 35.4375-31.519531 66.878906-59.917969 90.640625-11.839844 1.839844-23.761719 2.71875-35.761719 2.71875h-63.039062c-12 0-23.921875-.878906-35.761719-2.71875-28.398438-23.761719-49.277344-55.203125-59.917969-90.640625 3.277344-1.679687 6.960938-2.640625 10.878907-2.640625h232.640624c3.917969 0 7.601563.960938 10.878907 2.640625zm0 0" fill="#b27946"/><path d="m296 174.640625v14.078125c0 7.203125-2.878906 14.160156-8 19.28125h-192c-5.121094-5.121094-8-12.078125-8-19.28125v-14.078125c0-14.480469 5.761719-28.402344 16-38.640625h32.640625c11.039063 19.121094 31.679687 32 55.359375 32s44.320312-12.878906 55.359375-32h32.640625c10.238281 10.238281 16 24.160156 16 38.640625zm0 0" fill="#ecc19c"/><path d="m296 227.28125v9.4375c0 7.203125-2.878906 14.160156-8 19.28125h-192c-5.121094-5.121094-8-12.078125-8-19.28125v-9.4375c0-7.203125 2.878906-14.160156 8-19.28125h192c5.121094 5.121094 8 12.078125 8 19.28125zm0 0" fill="#ecc19c"/><path d="m296 288v24h-208v-36.71875c0-7.203125 2.878906-14.160156 8-19.28125h192c5.121094 5.121094 8 12.078125 8 19.28125zm0 0" fill="#ecc19c"/><path d="m312 64.878906c0 9.921875-2.558594 19.679688-7.519531 28.242188l-1.359375 2.398437-23.121094 40.480469h-32.640625c-11.039063 19.121094-31.679687 32-55.359375 32s-44.320312-12.878906-55.359375-32h-32.640625l-23.121094-40.480469-1.359375-2.398437c-4.960937-8.5625-7.519531-18.320313-7.519531-28.242188 0-31.4375 25.441406-56.878906 56.878906-56.878906h126.242188c15.757812 0 29.917968 6.398438 40.238281 16.640625 10.242187 10.320313 16.640625 24.480469 16.640625 40.238281zm0 0" fill="#cf9e76"/><path d="m240 88c0 26.507812-21.492188 48-48 48s-48-21.492188-48-48 21.492188-48 48-48 48 21.492188 48 48zm0 0" fill="#b27946"/><path d="m192 144c30.878906 0 56-25.121094 56-56s-25.121094-56-56-56-56 25.121094-56 56 25.121094 56 56 56zm0-96c22.054688 0 40 17.945312 40 40s-17.945312 40-40 40-40-17.945312-40-40 17.945312-40 40-40zm0 0"/><path d="m168 64h48v16h-48zm0 0"/><path d="m168 96h48v16h-48zm0 0"/><path d="m384 315.199219c0-13.800781-3.265625-27.613281-9.433594-39.960938-5.933594-11.863281-17.871094-19.238281-31.140625-19.238281-.945312 0-1.882812.113281-2.824219.191406l8.878907-32.558594c6.984375-25.585937 10.519531-52.007812 10.519531-78.527343 0-7.058594-1.328125-13.960938-3.960938-20.539063l-.726562-1.824218c-7.015625-17.535157-22.144531-29.78125-40.089844-33.460938 3.128906-7.730469 4.777344-16.015625 4.777344-24.394531 0-35.773438-29.113281-64.886719-64.886719-64.886719h-126.226562c-35.773438 0-64.886719 29.113281-64.886719 64.886719 0 8.371093 1.648438 16.664062 4.777344 24.386719-17.945313 3.6875-33.074219 15.925781-40.097656 33.460937l-.734376 1.839844c-2.617187 6.570312-3.945312 13.472656-3.945312 20.53125 0 26.519531 3.535156 52.941406 10.511719 78.527343l8.878906 32.558594c-.933594-.078125-1.871094-.191406-2.816406-.191406-13.269531 0-25.207031 7.375-31.140625 19.238281-6.167969 12.347657-9.433594 26.167969-9.433594 39.960938 0 25.535156 8.785156 50.585937 24.734375 70.527343l7.335937 9.160157c-.015624.488281-.070312.960937-.070312 1.441406 0 21.726563 13.503906 40.335937 32.542969 47.960937l7.609375 51.710938h239.703125l7.601562-51.710938c19.039063-7.625 32.542969-26.234374 32.542969-47.960937 0-.480469-.054688-.953125-.070312-1.433594l7.335937-9.160156c15.949219-19.941406 24.734375-44.992187 24.734375-70.535156zm-23.742188-32.800781c5.0625 10.128906 7.742188 21.472656 7.742188 32.800781 0 20.976562-6.96875 41.511719-19.550781 58.242187l-8.746094-43.722656c-2.984375-14.894531-16.183594-25.71875-31.375-25.71875h-4.328125v-11.472656l29.753906-17.847656c2.917969-1.75 6.261719-2.679688 9.671875-2.679688 7.175781 0 13.621094 3.984375 16.832031 10.398438zm-300.273437 50.464843c.261719-1.3125.726563-2.527343 1.289063-3.695312 8.664062 23.191406 21.542968 44.375 38.046874 62.671875-16.398437-4.425782-32.28125-10.703125-47.410156-18.59375zm68.304687 64.855469c-24.441406-20.847656-42.671874-47.488281-53.257812-77.664062.226562-.007813.425781-.054688.640625-.054688h232.648437c.214844 0 .421876.046875.640626.054688-10.585938 30.175781-28.816407 56.816406-53.257813 77.664062-10.640625 1.480469-21.398437 2.28125-32.199219 2.28125h-63.007812c-10.800782 0-21.558594-.800781-32.207032-2.28125zm-28.5625-133.71875h140.273438v-16h-140.265625c-2.367187-3.28125-3.734375-7.246094-3.734375-11.3125v-9.375c0-4.066406 1.367188-8.03125 3.734375-11.3125h140.265625v-16h-140.265625c-2.367187-3.28125-3.734375-7.246094-3.734375-11.3125v-14.054688c0-11.394531 4.105469-22.136718 11.527344-30.632812h24.664062c13.3125 19.847656 35.808594 32 59.800782 32 23.992187 0 46.496093-12.152344 59.800781-32h24.664062c7.4375 8.496094 11.542969 19.230469 11.542969 30.632812v14.054688c0 4.066406-1.367188 8.03125-3.734375 11.3125h-28.265625v16h28.265625c2.367187 3.28125 3.734375 7.246094 3.734375 11.3125v9.375c0 4.066406-1.367188 8.03125-3.734375 11.3125h-28.265625v16h28.273438c2.382812 3.28125 3.726562 7.183594 3.726562 11.3125v28.6875h-192v-28.6875c0-4.128906 1.34375-8.03125 3.726562-11.3125zm223 65.175781c.554688 1.167969 1.027344 2.382813 1.289063 3.695313l8.082031 40.386718c-15.128906 7.886719-31.007812 14.167969-47.410156 18.589844 16.496094-18.304687 29.375-39.480468 38.039062-62.671875zm17.738282-200.480469.726562 1.816407c1.863282 4.664062 2.808594 9.578125 2.808594 14.59375 0 25.101562-3.34375 50.109375-9.953125 74.320312l-11.871094 43.542969-18.273437 10.960938c-.246094-6.457032-2.148438-12.617188-5.636719-17.929688 3.734375-5.6875 5.734375-12.34375 5.734375-19.3125v-9.375c0-6.96875-2-13.625-5.734375-19.3125 3.734375-5.6875 5.734375-12.34375 5.734375-19.3125v-14.054688c0-14.648437-4.992188-28.527343-14.175781-39.6875l17.535156-30.6875c14.738281 1.238282 27.519531 10.484376 33.105469 24.4375zm-211.578125-112.695312h126.21875c26.957031 0 48.894531 21.9375 48.894531 48.886719 0 8.496093-2.222656 16.882812-6.441406 24.257812l-22.207032 38.855469h-32.597656l-2.3125 3.992188c-10 17.273437-28.570312 28.007812-48.441406 28.007812s-38.441406-10.734375-48.449219-28.007812l-2.3125-3.992188h-32.597656l-22.199219-38.847656c-4.21875-7.375-6.441406-15.769532-6.441406-24.265625 0-26.949219 21.9375-48.886719 48.886719-48.886719zm-86.078125 114.519531.726562-1.832031c5.578125-13.945312 18.367188-23.183594 33.105469-24.429688l17.535156 30.6875c-9.183593 11.160157-14.175781 25.039063-14.175781 39.6875v14.054688c0 6.96875 2 13.625 5.734375 19.3125-3.734375 5.6875-5.734375 12.34375-5.734375 19.3125v9.375c0 6.96875 2 13.625 5.734375 19.3125-3.476563 5.3125-5.390625 11.480469-5.636719 17.929688l-18.273437-10.960938-11.878907-43.542969c-6.601562-24.21875-9.945312-49.226562-9.945312-74.320312 0-5.015625.945312-9.929688 2.808594-14.585938zm-26.808594 184.679688c0-11.328125 2.679688-22.671875 7.742188-32.808594 3.210937-6.414063 9.65625-10.398437 16.832031-10.398437 3.410156 0 6.753906.929687 9.671875 2.679687l29.753906 17.855469v11.472656h-4.328125c-15.199219 0-28.390625 10.824219-31.375 25.726562l-8.746094 43.722657c-12.582031-16.738281-19.550781-37.273438-19.550781-58.25zm65.238281 132.679687c.816407.03125 1.617188.121094 2.433594.121094h61.550781l5.335938 32h-64.589844zm80.203125.121094h61.109375l-5.335937 32h-50.445313zm136.589844 32h-64.589844l5.335938-32h61.550781c.824219 0 1.625-.089844 2.433594-.121094zm2.296875-48h-216.65625c-19.671875 0-35.671875-16-35.671875-35.671875 0-2.25.238281-4.496094.664062-6.703125 34.664063 17.253906 73.023438 26.375 111.832032 26.375h63.007812c38.808594 0 77.167969-9.121094 111.832032-26.375.425781 2.207031.664062 4.464844.664062 6.703125 0 19.671875-16 35.671875-35.671875 35.671875zm0 0"/></svg>