<svg id="Capa_1" enable-background="new 0 0 512 512" height="512" viewBox="0 0 512 512" width="512" xmlns="http://www.w3.org/2000/svg"><ellipse cx="173.167" cy="297.064" fill="#808b95" rx="165.667" ry="165.667" transform="matrix(.707 -.707 .707 .707 -159.336 209.455)"/><path d="m226.473 140.162c43.682 29.83 72.36 80.014 72.36 136.901 0 91.495-74.171 165.667-165.667 165.667-18.649 0-36.578-3.083-53.307-8.765 26.574 18.147 58.699 28.765 93.307 28.765 91.495 0 165.667-74.171 165.667-165.667 0-72.845-47.017-134.708-112.36-156.901z" fill="#5e6b75"/><circle cx="173.167" cy="297.064" fill="#f6f9f9" r="108.018"/><path d="m200.289 192.495c24.901 19.805 40.896 50.353 40.896 84.569 0 59.562-48.457 108.018-108.018 108.018-9.364 0-18.452-1.199-27.122-3.45 18.446 14.671 41.777 23.45 67.122 23.45 59.562 0 108.018-48.457 108.018-108.018 0-50.198-34.419-92.506-80.896-104.569z" fill="#e7ecf1"/><circle cx="173.167" cy="297.064" fill="#707dd3" r="13.415"/><g fill="#5e6b75"><path d="m160.162 253.353v-38.281c-20.669 3.266-38.818 14.187-51.459 29.758l33.112 19.117c3.689 2.13 8.245 2.142 11.917-.018.166-.097.332-.194.499-.289 3.688-2.096 5.931-6.045 5.931-10.287z"/><path d="m204.518 263.947 33.112-19.117c-12.641-15.571-30.79-26.492-51.459-29.758v38.281c0 4.242 2.243 8.191 5.931 10.287.167.095.334.191.499.289 3.672 2.16 8.228 2.148 11.917.018z"/><path d="m134.752 297.064c0-.023 0-.046 0-.07.008-4.33-2.196-8.361-5.946-10.526l-33.134-19.13c-3.555 9.236-5.524 19.252-5.524 29.725s1.969 20.489 5.524 29.725l33.133-19.13c3.75-2.165 5.954-6.196 5.946-10.526.001-.022.001-.045.001-.068z"/><path d="m250.661 267.339-33.134 19.13c-3.75 2.165-5.954 6.196-5.946 10.526v.139c-.008 4.33 2.196 8.361 5.946 10.526l33.133 19.13c3.555-9.236 5.524-19.252 5.524-29.725s-1.968-20.491-5.523-29.726z"/><path d="m141.815 330.181-33.112 19.117c12.641 15.571 30.791 26.492 51.459 29.758v-38.281c0-4.242-2.243-8.191-5.931-10.287-.167-.095-.334-.191-.499-.289-3.672-2.16-8.228-2.148-11.917-.018z"/><path d="m186.171 340.775v38.281c20.669-3.266 38.818-14.187 51.459-29.757l-33.112-19.117c-3.689-2.13-8.245-2.142-11.916.018-.166.097-.332.194-.499.289-3.689 2.094-5.932 6.043-5.932 10.286z"/></g><path d="m470.673 324.634h-134.136c-11.807 70.477-68.102 125.868-139.032 136.312 3.013.879 6.192 1.37 9.489 1.37h263.679c18.682 0 33.827-15.145 33.827-33.827v-70.028c0-18.682-15.145-33.827-33.827-33.827z" fill="#808b95"/><path d="m470.673 49.27h-263.679c-18.682 0-33.827 15.145-33.827 33.827v48.3c49.222 0 93.421 21.474 123.764 55.555h173.742c18.682 0 33.827-15.145 33.827-33.827v-70.028c0-18.682-15.145-33.827-33.827-33.827z" fill="#808b95"/><path d="m470.673 186.952h-173.742c26.06 29.27 41.902 67.838 41.902 110.112 0 9.395-.794 18.603-2.297 27.57h134.136c18.682 0 33.827-15.145 33.827-33.827v-70.028c.001-18.682-15.144-33.827-33.826-33.827z" fill="#808b95"/><path d="m470.673 324.634h-9.13c1.894 4.222 2.957 8.899 2.957 13.827v70.028c0 18.682-15.145 33.827-33.827 33.827h-177.799c-16.881 9.283-35.553 15.712-55.37 18.63 3.013.879 6.192 1.37 9.489 1.37h263.679c18.682 0 33.827-15.145 33.827-33.827v-70.028c.001-18.682-15.144-33.827-33.826-33.827z" fill="#5e6b75"/><path d="m470.673 49.27h-9.13c1.894 4.222 2.957 8.899 2.957 13.827v70.028c0 18.682-15.145 33.827-33.827 33.827h-154.975c7.649 6.037 14.759 12.729 21.233 20h173.742c18.682 0 33.827-15.145 33.827-33.827v-70.028c0-18.682-15.145-33.827-33.827-33.827z" fill="#5e6b75"/><path d="m470.673 186.952h-9.13c1.894 4.223 2.957 8.899 2.957 13.827v70.028c0 18.682-15.145 33.827-33.827 33.827h-92.017c-.309 6.78-1.023 13.455-2.12 20h134.136c18.682 0 33.827-15.145 33.827-33.827v-70.028c.001-18.682-15.144-33.827-33.826-33.827z" fill="#5e6b75"/><path d="m165.667 431.55c0 4.142 3.358 7.5 7.5 7.5 78.472 0 141.987-63.504 141.987-141.987 0-37.926-14.769-73.582-41.587-100.399-2.929-2.929-7.678-2.929-10.606 0-2.929 2.929-2.929 7.678 0 10.606 23.985 23.984 37.193 55.874 37.193 89.793 0 70.183-56.795 126.987-126.987 126.987-4.143 0-7.5 3.358-7.5 7.5z"/><path d="m173.167 155.077c-37.926 0-73.582 14.77-100.399 41.587-26.819 26.817-41.588 62.474-41.588 100.399 0 37.926 14.769 73.582 41.587 100.4 1.464 1.464 3.384 2.197 5.303 2.197s3.839-.732 5.303-2.197c2.929-2.929 2.929-7.678 0-10.606-23.985-23.985-37.193-55.874-37.193-89.793s13.208-65.809 37.193-89.793c23.984-23.985 55.874-37.194 89.793-37.194 4.142 0 7.5-3.358 7.5-7.5s-3.357-7.5-7.499-7.5z"/><path d="m173.167 181.545c-63.697 0-115.518 51.821-115.518 115.518s51.821 115.518 115.518 115.518c25.042 0 48.885-7.913 68.95-22.884 3.32-2.477 4.003-7.176 1.526-10.496s-7.176-4.003-10.496-1.526c-17.455 13.023-38.195 19.907-59.98 19.907-55.426 0-100.518-45.092-100.518-100.518s45.092-100.518 100.518-100.518 100.518 45.092 100.518 100.518c0 20.083-5.93 39.48-17.148 56.096-2.318 3.433-1.414 8.095 2.019 10.413 3.432 2.316 8.094 1.414 10.413-2.019 12.899-19.104 19.717-41.404 19.717-64.489-.001-63.698-51.823-115.52-115.519-115.52z"/><path d="m194.082 297.063c0-11.532-9.382-20.915-20.915-20.915-11.532 0-20.915 9.382-20.915 20.915s9.382 20.915 20.915 20.915c11.532.001 20.915-9.382 20.915-20.915zm-26.83 0c0-3.261 2.653-5.915 5.915-5.915s5.915 2.653 5.915 5.915-2.653 5.915-5.915 5.915c-3.262.001-5.915-2.653-5.915-5.915z"/><path d="m104.953 251.325 33.112 19.117c5.971 3.448 13.434 3.502 19.463-.046l.408-.236c5.999-3.409 9.725-9.849 9.725-16.808v-38.281c0-2.193-.96-4.277-2.628-5.702s-3.873-2.047-6.042-1.706c-22.027 3.48-41.955 15.001-56.111 32.439-1.384 1.705-1.951 3.93-1.553 6.089.4 2.16 1.725 4.036 3.626 5.134zm47.709-26.944v28.971c0 1.575-.818 3.018-2.137 3.767l-.597.345c-1.326.779-2.998.775-4.363-.013l-25.047-14.46c9.036-8.812 20.073-15.201 32.144-18.61z"/><path d="m188.797 270.392c5.934 3.492 13.394 3.559 19.471.05l33.112-19.117c1.901-1.098 3.227-2.974 3.625-5.133s-.169-4.385-1.553-6.089c-14.156-17.438-34.083-28.958-56.112-32.439-2.168-.343-4.375.281-6.042 1.706s-2.628 3.509-2.628 5.702v38.281c0 6.958 3.727 13.399 9.725 16.807zm4.874-46.01c12.072 3.408 23.108 9.797 32.144 18.609l-25.046 14.46c-1.366.789-3.038.792-4.37.009l-.591-.341c-1.318-.749-2.137-2.192-2.137-3.767z"/><path d="m93.172 260.268c-2.067.731-3.711 2.33-4.499 4.377-3.997 10.385-6.024 21.293-6.024 32.419s2.027 22.034 6.024 32.419c.788 2.047 2.432 3.646 4.499 4.377.812.287 1.658.429 2.5.429 1.302 0 2.597-.339 3.75-1.005l33.134-19.129c5.994-3.46 9.709-9.988 9.696-17.021v-.125c.014-7.047-3.702-13.575-9.696-17.035l-33.134-19.13c-1.898-1.097-4.182-1.308-6.25-.576zm31.884 32.695c1.378.796 2.199 2.297 2.196 4.031v.153c.003 1.719-.817 3.221-2.196 4.017l-25.081 14.48c-1.546-6.057-2.327-12.276-2.327-18.581 0-6.304.78-12.524 2.327-18.581z"/><path d="m253.161 333.859c2.067-.731 3.711-2.33 4.5-4.376 3.998-10.385 6.024-21.292 6.024-32.419 0-11.126-2.027-22.034-6.024-32.419-.788-2.047-2.432-3.646-4.499-4.377s-4.351-.521-6.25.576l-33.134 19.13c-5.994 3.46-9.709 9.988-9.696 17.043v.104c-.013 7.047 3.703 13.574 9.696 17.035l33.133 19.129c1.872 1.08 4.154 1.315 6.25.574zm-31.884-32.695c-1.378-.796-2.199-2.298-2.196-3.987v-.197c-.003-1.72.818-3.221 2.196-4.017l25.081-14.48c1.546 6.057 2.327 12.276 2.327 18.581s-.78 12.524-2.327 18.581z"/><path d="m158.992 386.463c.39.062.781.092 1.17.092 1.773 0 3.504-.629 4.872-1.798 1.667-1.425 2.628-3.509 2.628-5.702v-38.281c0-6.958-3.727-13.398-9.73-16.811l-.397-.229c-5.974-3.514-13.434-3.533-19.469-.049l-33.112 19.117c-1.901 1.098-3.227 2.974-3.625 5.133s.169 4.385 1.553 6.089c14.155 17.439 34.083 28.959 56.11 32.439zm-13.427-49.787c1.365-.788 3.038-.792 4.355-.018.202.12.406.237.604.35 1.318.749 2.137 2.192 2.137 3.767v28.971c-12.071-3.408-23.107-9.797-32.143-18.609z"/><path d="m181.299 384.757c1.368 1.168 3.099 1.798 4.872 1.798.389 0 .781-.03 1.17-.092 22.028-3.481 41.955-15.001 56.111-32.438 1.384-1.705 1.951-3.93 1.553-6.089-.399-2.159-1.724-4.035-3.625-5.133l-33.112-19.117c-6.034-3.484-13.495-3.466-19.478.054l-.394.228c-6 3.409-9.726 9.85-9.726 16.808v38.281c.001 2.192.961 4.276 2.629 5.7zm12.372-43.983c0-1.574.819-3.017 2.132-3.764.204-.116.407-.233.601-.348.66-.388 1.404-.582 2.155-.582.758 0 1.522.198 2.209.595l25.046 14.46c-9.035 8.812-20.071 15.201-32.143 18.609z"/><path d="m470.673 41.77h-263.679c-22.788 0-41.327 18.54-41.327 41.328v40.96c-16.485.702-32.672 3.721-48.219 9.002-3.922 1.332-6.021 5.591-4.689 9.514 1.332 3.922 5.593 6.022 9.514 4.689 16.342-5.55 33.466-8.365 50.895-8.365 87.213 0 158.167 70.953 158.167 158.167 0 8.901-.74 17.633-2.16 26.137-.022.115-.042.231-.059.347-11.357 67.088-65.103 119.947-132.63 129.967-.059.008-.117.017-.176.026-7.556 1.113-15.283 1.689-23.143 1.689-87.214-.001-158.167-70.954-158.167-158.168 0-57.157 30.404-107.618 76.472-135.463 3.544-2.143 4.681-6.753 2.539-10.298-2.142-3.544-6.752-4.683-10.298-2.539-50.545 30.55-83.713 85.875-83.713 148.3 0 95.485 77.682 173.167 173.167 173.167 8.1 0 16.072-.56 23.879-1.641 3.274.814 6.613 1.227 9.948 1.227h263.679c22.788 0 41.327-18.54 41.327-41.327v-70.028c0-13.97-6.968-26.343-17.611-33.827 10.643-7.484 17.611-19.857 17.611-33.827v-70.028c0-13.97-6.968-26.343-17.611-33.827 10.643-7.484 17.611-19.857 17.611-33.827v-70.028c0-22.788-18.539-41.327-41.327-41.327zm26.327 206.523h-86.228c-4.142 0-7.5 3.358-7.5 7.5s3.358 7.5 7.5 7.5h86.228v15h-151.677c-.549-5.068-1.317-10.071-2.295-15h32.745c4.142 0 7.5-3.358 7.5-7.5s-3.358-7.5-7.5-7.5h-36.43c-1.5-5.101-3.228-10.105-5.174-15h162.831zm-198.236 167.867c4.509-4.753 8.753-9.761 12.706-15h185.53v15zm127.955 38.656-23.656-23.656h22.62l23.656 23.656zm-43.833 0-23.656-23.656h22.62l23.656 23.656zm-43.833 0-23.656-23.656h22.62l23.656 23.656zm-43.832 0-18.81-18.81c2.106-1.569 4.176-3.185 6.207-4.846h11.567l23.656 23.656zm34.447-83.656h167.332v15h-175.392c2.923-4.851 5.615-9.856 8.06-15zm52.183-215.549 23.841 23.841h-22.62l-23.841-23.841zm1.631 62.682-23.841-23.841h22.62l23.841 23.841zm-45.464-62.682 23.841 23.841h-22.62l-23.841-23.841zm.411 38.841 23.841 23.841h-34.91c-4.289-8.363-9.24-16.332-14.781-23.841zm20.801 161.708 24.026-24.026h22.62l-24.026 24.026zm.411-39.026 23.841-23.841h22.62l-23.841 23.841zm-13.763-7.45c.302-4.168.456-8.377.456-12.621 0-1.26-.014-2.517-.041-3.771h15.977zm-3.114 22.45h19.279l-24.026 24.026h-2.07c2.829-7.767 5.117-15.79 6.817-24.026zm104.132 24.026 24.024-24.024c13.629.126 24.817 10.662 25.98 24.024zm-21.213 0h-22.62l24.026-24.026h22.62zm-22.209-39.026 23.841-23.841h22.62l-23.841 23.841zm23.841-98.841-23.841-23.841h22.62l23.841 23.841zm1.906-38.841c-.014 0-2.316 0-2.316 0l-23.841-23.841h22.62l23.841 23.841zm17.675-23.841h49.987c-1.255 13.334-12.496 23.808-26.146 23.841zm-199.532-15c-15.48-7.371-32.219-12.51-49.798-15h299.434v15zm249.636-45v15h-316.333v-15zm-222.807-38.841-23.842 23.841h-22.62l23.842-23.841zm43.833 0-23.841 23.841h-22.62l23.842-23.841zm43.833 0-23.841 23.841h-22.62l23.841-23.841zm43.833 0-23.841 23.841h-22.62l23.841-23.841zm43.833 0-23.842 23.841h-22.62l23.841-23.841zm47.358 23.841h-49.987l23.841-23.841c13.65.033 24.891 10.506 26.146 23.841zm-289.889-23.841h23.367l-23.842 23.841h-25.735c1.256-13.356 12.531-23.841 26.21-23.841zm65.958 98.841h21.232l23.841 23.841h-17.869c-8.206-8.854-17.324-16.851-27.204-23.841zm-9.176 288.973 10.232 10.232h-29.437c6.634-3.015 13.047-6.436 19.205-10.232zm206.897 10.232h-.121l-23.656-23.656h49.969c-1.342 13.267-12.577 23.656-26.192 23.656zm-23.366-137.682 23.841-23.841h25.735c-1.257 13.355-12.532 23.841-26.21 23.841zm49.576-98.841h-25.735l-23.841-23.841h23.366c13.678 0 24.953 10.486 26.21 23.841z"/></svg>