<svg height="512" viewBox="0 0 60 60" width="512" xmlns="http://www.w3.org/2000/svg"><g id="Page-1" fill="none" fill-rule="evenodd"><g id="010---RC-Road-Wheel" fill-rule="nonzero"><circle id="Oval" cx="30" cy="30" fill="#607d8b" r="29"/><path id="Shape" d="m30 1c-.5033333 0-1.0033333.01266667-1.5.038 15.4192225.79012792 27.5158989 13.5225465 27.5158989 28.962s-12.0966764 28.1718721-27.5158989 28.962c.4973333.0253333.9973333.038 1.5.038 16.0162576-.0000002 28.9999996-12.9837424 28.9999996-29s-12.983742-28.99999976-28.9999996-29z" fill="#37474f"/><circle id="Oval" cx="30" cy="30" fill="#02a9f4" r="25"/><path id="Shape" d="m30 5c-.5 0-1 .019-1.5.049 13.1671239.83401357 23.4196519 11.7564891 23.4196519 24.95s-10.252528 24.1159864-23.4196519 24.95c.5.03 1 .049 1.5.049 13.7193264-.1227131 24.7763954-11.2791248 24.7763954-24.999s-11.057069-24.87628693-24.7763954-24.999z" fill="#0377bc"/><path id="Shape" d="m34.91 9.58-1.91 12.42-.19.51c-1.8116865-.6796618-3.8083135-.6796618-5.62 0l-.19-.51-1.91-12.42c3.2276585-.77332748 6.5923415-.77332748 9.82 0z" fill="#f5f5f5"/><path id="Shape" d="m30 9c-.5 0-1 .023-1.5.059 1.149224.07811237 2.2898815.25238878 3.41.521l-1.91 12.42c.959836-.0017224 1.9119873.171088 2.81.51l.19-.51 1.91-12.42c-1.6079304-.38705071-3.2561422-.58174782-4.91-.58z" fill="#cfd8dc"/><path id="Shape" d="m24.91 36.17-.34.43-9.8 7.86c-2.2871855-2.4041608-3.9701117-5.3175769-4.91-8.5l11.71-4.56.53-.1h.01c.3078258 1.9106089 1.3036931 3.6427067 2.8 4.87z" fill="#f5f5f5"/><path id="Shape" d="m24.91 36.17-.34.43-9.8 7.86c-2.2871855-2.4041608-3.9701117-5.3175769-4.91-8.5l11.71-4.56.53-.1h.01c.3078258 1.9106089 1.3036931 3.6427067 2.8 4.87z" fill="#f5f5f5"/><path id="Shape" d="m50.14 35.96c-.9398883 3.1824231-2.6228145 6.0958392-4.91 8.5l-9.8-7.86-.64-.19c1.6572248-1.2365784 2.768844-3.0689571 3.1-5.11h.01l.53.1z" fill="#f5f5f5"/><path id="Shape" d="m38.43 31.4-.53-.1h-.01c-.0556652.3274494-.1318147.6510848-.228.969l9.478 3.691c-.76172 2.5737512-2.0129259 4.976338-3.685 7.076l1.775 1.424c2.2871855-2.4041608 3.9701117-5.3175769 4.91-8.5z" fill="#cfd8dc"/><g fill="#607d8b"><path id="Shape" d="m51 30c.0018778 2.0177177-.2877812 4.0251218-.86 5.96l-11.71-4.56-.53-.1c.0638835-.4304402.0972999-.8648534.1-1.3.0016288-3.33481-2.0670692-6.3202721-5.19-7.49l.19-.51 1.91-12.42c9.4383242 2.2696801 16.0909565 10.7126106 16.09 20.42z"/><path id="Shape" d="m45.23 44.46c-3.9649669 4.1765472-9.4711365 6.5415388-15.23 6.5415388s-11.2650331-2.3649916-15.23-6.5415388l9.8-7.86.34-.43c2.8442844 2.347867 6.9250711 2.4469954 9.88.24l.64.19z"/><path id="Shape" d="m22 30c.0027001.4351466.0361165.8695598.1 1.3l-.53.1-11.71 4.56c-1.63024807-5.522061-.92342558-11.4711601 1.955343-16.4574972 2.8787685-4.9863371 7.6773263-8.5731494 13.274657-9.9225028l1.91 12.42.19.51c-3.1229308 1.1697279-5.1916288 4.15519-5.19 7.49z"/></g><path id="Shape" d="m39 30c-.0031045.4893526-.0405297.9778847-.112 1.462h-.012c-.7141478 4.3466782-4.4710461 7.5366965-8.876 7.5366965s-8.1618522-3.1900183-8.876-7.5366965h-.012c-.0714703-.4841153-.1088955-.9726474-.112-1.462-.0017614-3.7516558 2.3256435-7.11023 5.839-8.426 2.0378495-.7653119 4.2841505-.7653119 6.322 0 3.5133565 1.31577 5.8407614 4.6743442 5.839 8.426z" fill="#9e9e9e"/><path id="Shape" d="m33.161 21.574c-1.0100638-.381714-2.0812179-.5762228-3.161-.574-.5664714.000596-1.1316296.0545003-1.688.161.5025137.0940902.9957558.2322917 1.474.413 3.5133565 1.31577 5.8407614 4.6743442 5.839 8.426-.0031045.4893526-.0405297.9778847-.112 1.462h-.013c-.6016448 3.7343183-3.4880668 6.6860132-7.208 7.371 2.3853698.4648415 4.8572968-.0567479 6.8515058-1.4457033 1.9942091-1.3889554 3.3404797-3.5267191 3.7314942-5.9252967h.012c.071805-.4840917.1095643-.972624.113-1.462.0017614-3.7516558-2.3256435-7.11023-5.839-8.426z" fill="#707070"/><circle id="Oval" cx="30" cy="30" fill="#607d8b" r="5"/><path id="Shape" d="m30 25c-.6430945.0014171-1.2798245.1274047-1.875.371 1.8882574.7612299 3.1248703 2.5930759 3.1248703 4.629s-1.2366129 3.8677701-3.1248703 4.629c1.8711087.763967 4.0181403.3263553 5.4409812-1.1089903 1.422841-1.4353456 1.8416498-3.586124 1.0613401-5.4504765s-2.606268-3.0756018-4.6273213-3.0695332z" fill="#37474f"/><path id="Shape" d="m30 60c16.5685425 0 30-13.4314575 30-30s-13.4314575-30-30-30-30 13.4314575-30 30c.01873704 16.5607751 13.4392249 29.981263 30 30zm-28-30c.00115467-1.5253728.12690614-3.0481027.376-4.553.68609273-.6741863 1.48829929-1.2189279 2.368-1.608-.49341831 2.0165369-.74320203 4.0849744-.744 6.161 0 .2.011.405.015.608-.75116734.3472968-1.41072361.8654217-1.926 1.513-.053-.701-.089-1.407-.089-2.121zm3.613-13.732c.87382753-.3957607 1.81180982-.6308491 2.769-.694-1.26785665 1.8953239-2.27993465 3.9497413-3.01 6.11-.82467654.068901-1.62185639.3294911-2.328.761.60462893-2.1548826 1.46720315-4.2288884 2.569-6.177zm42.344-5.044c-1.646739-1.57862264-3.493101-2.93481788-5.492-4.034.0750002-.82613916-.0445247-1.65836164-.349-2.43 2.0179563.97312282 3.91211 2.1844143 5.642 3.608.2356367.93259231.3030256 1.8997407.199 2.856zm-7.505-5.024c-2.0864429-.92203105-4.2859507-1.56328793-6.541-1.907-.2144529-.79890446-.6111685-1.53722666-1.159-2.157 2.2271842.21876389 4.419756.70596476 6.53 1.451.5433952.79387138.9396943 1.67893927 1.17 2.613zm-8.774-2.14c-.555-.036-1.114-.06-1.678-.06-1.7179108.00025354-3.431585.17041509-5.116.508-.4752801-.67961964-1.1021309-1.23936904-1.831-1.635 2.1694108-.55287089 4.3973536-.84328236 6.636-.865.779375.5607132 1.4528546 1.25552473 1.989 2.052zm-8.978.989c-2.185641.63938207-4.2773606 1.56436528-6.221 2.751-.6740075-.47612565-1.4499879-.78809307-2.266-.911 1.8423152-1.2621635 3.8291212-2.29921042 5.918-3.089.9232383.26170869 1.7929505.68454659 2.569 1.249zm7.3.951c13.254834 0 24 10.745166 24 24s-10.745166 24-24 24-24-10.745166-24-24c.01542952-13.2484376 10.7515624-23.98457048 24-24zm25.5 12.462c.9245881 2.0346206 1.6001431 4.1734304 2.012 6.37-.4172035.8637029-.9839393 1.6467735-1.674 2.313-.2493725-2.2623493-.7974777-4.4816711-1.63-6.6.5873388-.5839783 1.0298109-1.2973447 1.292-2.083zm2.5 11.538c-.0011601 1.525041-.1269117 3.0474382-.376 4.552-.6869249.6724488-1.4885349 1.2166767-2.367 1.607.493027-2.0159089.7424753-4.0836774.743-6.159 0-.2-.011-.405-.015-.608.7511673-.3472968 1.4107236-.8654217 1.926-1.513.053.701.089 1.407.089 2.121zm-3.613 13.732c-.8738606.3944976-1.8113438.6292071-2.768.693 1.26894-1.8978519 2.281695-3.9549685 3.012-6.118.8235604-.0677576 1.6199778-.3266104 2.326-.756-.6045233 2.1563473-1.4674469 4.2317287-2.57 6.181zm-42.344 5.044c1.646739 1.5786226 3.493101 2.9348179 5.492 4.034-.0750002.8261392.0445247 1.6583616.349 2.43-2.0179563-.9731228-3.91211-2.1844143-5.642-3.608-.2356367-.9325923-.3030256-1.8997407-.199-2.856zm7.5 5.023c2.0864429.922031 4.2859507 1.5632879 6.541 1.907.2144529.7989045.6111685 1.5372267 1.159 2.157-2.2271842-.2187639-4.419756-.7059648-6.53-1.451-.5415247-.7939282-.936117-1.6786279-1.165-2.612zm8.774 2.141c.555.036 1.114.06 1.678.06 1.7179108-.0002535 3.431585-.1704151 5.116-.508.4752801.6796196 1.1021309 1.239369 1.831 1.635-2.1694108.5528709-4.3973536.8432824-6.636.865-.7775841-.5611683-1.4493448-1.2559531-1.984-2.052zm8.974-.989c2.1860411-.6386992 4.2781362-1.5633636 6.222-2.75.6754077.4752266 1.4522991.7864624 2.269.909-1.8406969 1.2621592-3.8258074 2.299533-5.913 3.09-.9232383-.2617087-1.7929505-.6845466-2.569-1.249zm-33.131-22.096c.24893793 2.2640466.79705004 4.4850775 1.63 6.605-.58595658.5827566-1.02769137 1.2943263-1.29 2.078-.92458807-2.0346206-1.60014306-4.1734304-2.012-6.37.41660256-.8635489.98265405-1.6466093 1.672-2.313zm2.54 8.658c1.01337914 2.0392019 2.28884 3.9372651 3.794 5.646-.3535314.7464598-.52750162 1.5652844-.508 2.391-1.56093447-1.5972811-2.92651071-3.3744101-4.068-5.294.09454867-.9537381.35940949-1.8827831.782-2.743zm41.512 9.732c-.9533165.067827-1.9111114-.033742-2.829-.3 1.8341404-1.3514403 3.4843658-2.9361138 4.909-4.714.421149.1291836.859491.1935862 1.3.191.3851001-.003923.769162-.0407233 1.148-.11-1.3096522 1.8182737-2.8310141 3.4742487-4.532 4.933zm5.878-35.5c-.0945487.9537381-.3594095 1.8827831-.782 2.743-1.0133791-2.0392019-2.28884-3.9372651-3.794-5.646.3535314-.7464598.5275016-1.5652844.508-2.391 1.5594687 1.5971919 2.9236929 3.373973 4.064 5.293zm-42.298-6.99c.9533139-.06767894 1.9110829.03388723 2.829.3-1.8341141 1.351088-3.484342 2.9354278-4.909 4.713-.7969804-.2181322-1.63392364-.2468978-2.444-.084 1.30736859-1.8164528 2.8260228-3.4710608 4.524-4.929z" fill="#000"/><path id="Shape" d="m30 52c12.1502645 0 22-9.8497355 22-22s-9.8497355-22-22-22-22 9.8497355-22 22c.01377716 12.1445532 9.8554468 21.9862228 22 22zm-6.517-15.81-8.583 6.886c-1.6638744-1.9183026-2.9467761-4.1362293-3.78-6.535l10.253-3.989c.4061538 1.3622854 1.1292272 2.6089873 2.11 3.638zm6.517-13.19c3.8659932 0 7 3.1340068 7 7s-3.1340068 7-7 7-7-3.1340068-7-7c.0044086-3.8641657 3.1358343-6.9955914 7-7zm8.626 9.552 10.253 3.989c-.8332239 2.3987707-2.1161256 4.6166974-3.78 6.535l-8.582-6.886c.9804113-1.0291163 1.7031372-2.2758098 2.109-3.638zm-22.334 11.972 8.75-7.02c3.0044171 1.9946213 6.9115829 1.9946213 9.916 0l8.75 7.02c-7.6812213 7.2990706-19.7347787 7.2990706-27.416 0zm33.708-14.524c-.0053403 1.5542333-.1929553 3.1024766-.559 4.613l-10.468-4.072c.01-.18.027-.358.027-.541-.0042807-3.4076634-1.9327803-6.5206691-4.982-8.042l1.709-11.112c8.4611371 2.5383291 14.2600537 10.3203265 14.273 19.154zm-16.223-19.631-1.677 10.889c-1.380899-.3439979-2.825101-.3439979-4.206 0l-1.671-10.889c2.4939673-.49199373 5.0600327-.49199373 7.554 0zm-9.5.477 1.709 11.112c-3.0507739 1.5202133-4.9809623 4.6334454-4.986 8.042 0 .183.017.361.027.541l-10.468 4.072c-2.4978786-10.3118169 3.5362559-20.7692526 13.714-23.767z" fill="#000"/><path id="Shape" d="m30 35c2.7614237 0 5-2.2385763 5-5s-2.2385763-5-5-5-5 2.2385763-5 5c.0033061 2.7600532 2.2399468 4.9966939 5 5zm0-8c1.6568542 0 3 1.3431458 3 3s-1.3431458 3-3 3-3-1.3431458-3-3 1.3431458-3 3-3z" fill="#000"/></g></g></svg>