<svg height="512" viewBox="0 0 60 60" width="512" xmlns="http://www.w3.org/2000/svg"><g id="Page-1" fill="none" fill-rule="evenodd"><g id="011---RC-Dirt-Wheel" fill-rule="nonzero"><g fill="#7f8e94"><path id="Shape" d="m34 55.69v1.31c-.0032948 1.1032019-.8967981 1.9967052-2 2h-4c-1.1032019-.0032948-1.9967052-.8967981-2-2v-54c.0032948-1.10320187.8967981-1.9967052 2-2h4c1.1032019.0032948 1.9967052.89679813 2 2z"/><path id="Shape" d="m46.309 50.248.655 1.135c.5487218.9570236.2217047 2.1775299-.732 2.732l-3.464 2c-.9570236.5487218-2.1775299.2217047-2.732-.732l-.655-1.135-25.69-44.5-.655-1.135c-.5487218-.95702358-.2217047-2.17752991.732-2.732l3.464-2c.9570236-.54872176 2.1775299-.22170469 2.732.732l.655 1.135z"/><path id="Shape" d="m50.248 46.309 1.135.655c.9570236.5487218 2.1775299.2217047 2.732-.732l2-3.464c.5487218-.9570236.2217047-2.1775299-.732-2.732l-1.135-.655-44.5-25.69-1.135-.655c-.95702358-.5487218-2.17752991-.2217047-2.732.732l-2 3.464c-.54872176.9570236-.22170469 2.1775299.732 2.732l1.135.655z"/><path id="Shape" d="m55.69 26h1.31c1.1032019.0032948 1.9967052.8967981 2 2v4c-.0032948 1.1032019-.8967981 1.9967052-2 2h-54c-1.10320187-.0032948-1.9967052-.8967981-2-2v-4c.0032948-1.1032019.89679813-1.9967052 2-2z"/><path id="Shape" d="m54.248 20.619 1.135-.655c.9537047-.5544701 1.2807218-1.7749764.732-2.732l-2-3.464c-.5544701-.9537047-1.7749764-1.2807218-2.732-.732l-1.135.655-44.5 25.69-1.135.655c-.95370469.5544701-1.28072176 1.7749764-.732 2.732l2 3.464c.55447009.9537047 1.77497642 1.2807218 2.732.732l1.135-.655z"/><path id="Shape" d="m46.309 9.752.655-1.135c.5487218-.95702358.2217047-2.17752991-.732-2.732l-3.464-2c-.9570236-.54872176-2.1775299-.22170469-2.732.732l-.655 1.135-25.69 44.5-.655 1.135c-.5487218.9570236-.2217047 2.1775299.732 2.732l3.464 2c.9570236.5487218 2.1775299.2217047 2.732-.732l.655-1.135z"/></g><circle id="Oval" cx="30" cy="30" fill="#607d8b" r="26"/><path id="Shape" d="m30 4c-.5 0-1 .018-1.5.046 13.7346379.81809046 24.454075 12.1950193 24.454075 25.954s-10.7194371 25.1359095-24.454075 25.954c.5.028 1 .046 1.5.046 14.3594033-.0000003 25.9999995-11.6405967 25.9999995-26s-11.6405962-25.9999997-25.9999995-26z" fill="#37474f"/><circle id="Oval" cx="30" cy="30" fill="#f5f5f5" r="18"/><path id="Shape" d="m30 12c-.506 0-1 .035-1.5.076 9.3272756.7701697 16.5049834 8.5649813 16.5049834 17.924s-7.1777078 17.1538303-16.5049834 17.924c.5.041.994.076 1.5.076 9.9411255 0 18-8.0588745 18-18s-8.0588745-18-18-18z" fill="#cfd8dc"/><circle id="Oval" cx="30" cy="30" fill="#3f51b5" r="14"/><path id="Shape" d="m30 16c-.501124.000841-1.0018425.0285475-1.5.083 7.1005043.7766351 12.477794 6.7741488 12.477794 13.917s-5.3772897 13.1403649-12.477794 13.917c5.1556805.5638557 10.2006402-1.7687254 13.1106632-6.0618293s3.2082338-9.8432051.7749798-14.423407-7.1992273-7.4399313-12.385643-7.4317637z" fill="#283593"/><path id="Shape" d="m23.74 33.12-5.13 8.35c-.5851808.9666093-.3429517 2.2193501.5603825 2.8981412s2.1740034.5628853 2.9396175-.2681412l6.61-7.22 2.59-.01 6.62 7.23c.7621416.840796 2.0396857.9616514 2.9459746.2786887s1.1422096-1.9443375.5440254-2.9086887l-5.14-8.37v-.01l.69-2.61 8.68-4.64c.9972907-.5362897 1.4246165-1.7419965.9876325-2.786621s-1.595534-1.5869328-2.6776325-1.253379l-9.38 2.92-1.46-.98v-.01l-.93-9.74c-.1079868-1.1287107-1.0561354-1.9904767-2.19-1.9904767s-2.0820132.861766-2.19 1.9904767l-.93 9.74-1.45.98-9.35-2.91c-1.0821889-.3394102-2.2445754.2027476-2.68 1.25-.1137883.2688529-.1716303.5580634-.17.85-.0004942.8110522.4452935 1.5565936 1.16 1.94l8.64 4.63z" fill="#f5f5f5"/><path id="Shape" d="m29.19 13.99.93 9.74v.01l1.46.98 2.05-.638-.51-.342v-.01l-.93-9.74c-.0830789-.8322525-.6308934-1.5454109-1.413592-1.8402485-.7826986-.2948377-1.6648834-.1203512-2.276408.4502485.3912028.3641406.6364732.8582361.69 1.39z" fill="#cfd8dc"/><path id="Shape" d="m46.64 23.05c-.4383333-1.0444598-1.5980814-1.5853871-2.68-1.25l-1.05.327c.3239955.2342507.5766904.5537539.73.923.4386657 1.0461511.0099577 2.2543282-.99 2.79l-8.68 4.64-.69 2.61v.01l5.14 8.37c.5553841.8816854.3967755 2.034973-.376 2.734.7958152.7651548 2.0368583.8179621 2.894795.1231756.8579368-.6947865 1.0642368-1.9197015.481205-2.8571756l-5.14-8.37v-.01l.69-2.61 8.68-4.64c.9999577-.5356718 1.4286657-1.7438489.99-2.79z" fill="#cfd8dc"/><circle id="Oval" cx="30" cy="30" fill="#607d8b" r="7"/><path id="Shape" d="m30 23c-.5044849.0007873-1.0074065.0561087-1.5.165 3.2064126.7087816 5.4891145 3.5511831 5.4891145 6.835s-2.2827019 6.1262184-5.4891145 6.835c2.6211486.579393 5.3427728-.3912156 7.0057888-2.4984637 1.663016-2.107248 1.9744743-4.9799318.8017312-7.3946348-1.172743-2.4147029-3.6231022-3.9460614-6.30752-3.9419015z" fill="#37474f"/><circle id="Oval" cx="30" cy="30" fill="#f5f5f5" r="2"/><path id="Shape" d="m47.749 23.277c-.0417341-.2088528-.1036927-.4131489-.185-.61-.0813553-.1935375-.181855-.378457-.3-.552-3.2661964-7.1803843-10.6324434-11.5927588-18.5043696-11.0840988-7.8719262.5086601-14.6090581 5.8323522-16.9240019 13.3733729-2.31494383 7.5410206.2747242 15.7278554 6.5053715 20.5657259.073.067.139.139.22.2.1014681.0725863.2069708.1393602.316.2 6.5799459 4.805759 15.5015947 4.8444734 22.123.096.1677641-.0853358.3274214-.1857492.477-.3.1027268-.0857674.1999211-.1779517.291-.276 6.524066-5.1096684 8.9517733-13.8774032 5.985-21.615zm-2.571 1.681-7.271 3.887c-.1922797-1.321737-.7147156-2.5736572-1.519-3.64l7.872-2.451c.5050763-.1512879 1.0492793.0502385 1.334.494.063.145.119.293.178.44.100205.5075798-.1401848 1.0215446-.594 1.27zm-2.178 5.042c.0017032 2.8305818-.9249878 5.5836058-2.638 7.837l-2.962-4.817c.2488157-.6129644.4201403-1.2545919.51-1.91l4.99-2.666c.065026.5161428.0984217 1.0357796.1 1.556zm-2.958 13.686c-.465808.2252228-1.0241208.1192449-1.375-.261l-5.547-6.059c1.2278361-.5253364 2.3055768-1.3480759 3.136-2.394l4.311 7.02c.1182692.1882172.1816477.4057131.183.628-.0010569.2666106-.0931392.5248645-.261.732-.147.115-.297.224-.447.334zm-20.154-.053c-.072-.053-.144-.106-.215-.161-.4083645-.3821563-.4961173-.9968419-.211-1.478l4.3-7c.8350571 1.0428703 1.9165702 1.8614798 3.147 2.382l-5.537 6.047c-.3847604.40829-1.0010614.4955024-1.484.21zm-5.564-20.2c.2356477-.5713813.8703201-.8663148 1.459-.678l7.837 2.44c-.8047924 1.0661554-1.3275923 2.3181235-1.52 3.64l-7.23-3.875c-.3927368-.2073118-.6375115-.6159121-.635-1.06-.0027997-.1604577.027497-.3197708.089-.468zm15.676 12.567c-3.3137085 0-6-2.6862915-6-6s2.6862915-6 6-6 6 2.6862915 6 6c-.0033074 3.3123376-2.6876624 5.9966926-6 6zm4.79-12.392c-.2322548-.1743369-.4735939-.336231-.723-.485l-.538-5.632c2.6284805.7444751 4.9562835 2.2966936 6.654 4.437zm-3.6-9.523.784 8.173c-1.2953001-.3433466-2.6576999-.3433466-3.953 0l.78-8.17c.0591288-.6154553.5762109-1.0852405 1.1945-1.0852405s1.1353712.4697852 1.1945 1.0852405zm-5.261 9.038c-.2448321.145774-.4818262.3043264-.71.475l-5.4-1.68c1.6960356-2.1358986 4.0206152-3.6845689 6.645-4.427zm-8.832 5.3 4.987 2.677c.091064.6709257.2671453 1.3275341.524 1.954l-2.954 4.809c-1.7259327-2.2574792-2.6588191-5.0213398-2.654-7.863.0016777-.525867.0350716-1.0511541.1-1.573zm12 9.519c.6093491.0753015 1.2256509.0753015 1.835 0l3.8 4.153c-1.5055913.5992888-3.1115217.9064246-4.732.905-1.6115752-.0043195-3.2084455-.3067417-4.71-.892zm15.131-17.217c-.1916313.0224888-.3807708.06266-.565.12l-1.471.458c-2.1329507-2.9854135-5.2861427-5.0855255-8.863-5.903l-.144-1.5c-.0199564-.2031674-.0587908-.4040348-.116-.6 4.5787558.8443 8.6116469 3.5277139 11.159 7.425zm-17.3-7.433c-.0570109.1960632-.0961705.3968814-.117.6l-.143 1.5c-3.573782.8171658-6.723917 2.916307-8.854 5.9l-1.439-.448c-.1956431-.0607938-.3965035-.1033093-.6-.127 2.5468344-3.8964402 6.5784344-6.5797164 11.156-7.425zm-13.928 16.708c.0018372-1.2225472.1359511-2.4413069.4-3.635.1603395.1352059.3334938.2544379.517.356l1.327.711c-.8091656 4.3658134.4068882 8.8629319 3.306 12.226l-.792 1.289c-.1037967.1683896-.1915167.3461733-.262.531-2.8890825-3.1242638-4.4944529-7.2226717-4.496-11.478zm9.391 15.181c.1649712-.1204015.3180061-.2563581.457-.406l1.018-1.112c3.9030216 1.7892805 8.3932359 1.7827047 12.291-.018l1.031 1.126c.1359496.1472358.2856268.2811751.447.4-4.7877889 2.4380528-10.4520598 2.4428833-15.244.013zm20.131-3.723c-.068469-.177212-.152113-.3481804-.25-.511l-.8-1.31c2.2777753-2.6945466 3.5276625-6.1087084 3.528-9.637-.0070923-.8548123-.0887351-1.7073769-.244-2.548l1.369-.732c.1701461-.0929369.3317713-.200687.483-.322 1.1819551 5.3861135-.3438524 11.0098682-4.086 15.06z" fill="#000"/><path id="Shape" d="m30 27c-1.6568542 0-3 1.3431458-3 3s1.3431458 3 3 3 3-1.3431458 3-3-1.3431458-3-3-3zm0 4c-.5522847 0-1-.4477153-1-1s.4477153-1 1-1 1 .4477153 1 1-.4477153 1-1 1z" fill="#000"/><path id="Shape" d="m57 25h-.472c-.2505663-1.3362772-.6029264-2.6514428-1.054-3.934l.409-.236c.6899013-.3975093 1.1934799-1.0529734 1.399805-1.8220035.2063252-.7690302.0984706-1.5885373-.299805-2.2779965l-2-3.464c-.8303616-1.4334186-2.6636472-1.9252757-4.1-1.1l-.422.243c-.8852535-1.0284185-1.8462736-1.9891043-2.875-2.874l.244-.422c.8252757-1.43635279.3334186-3.26963838-1.1-4.1l-3.464-2c-.6894592-.39827562-1.5089663-.50613019-2.2779965-.29980503-.7690301.20632517-1.4244942.70990372-1.8220035 1.39980503l-.236.409c-1.2813646-.44952075-2.5951838-.80054114-3.93-1.05v-.472c0-1.65685425-1.3431458-3-3-3h-4c-1.6568542 0-3 1.34314575-3 3v.472c-1.3362772.25056629-2.6514428.60292637-3.934 1.054l-.236-.409c-.3975093-.68990131-1.0529734-1.19347986-1.8220035-1.39980503-.7690302-.20632516-1.5885373-.09847059-2.2779965.29980503l-3.464 2c-1.4334186.83036162-1.9252757 2.66364721-1.1 4.1l.243.422c-1.0284185.8852535-1.9891043 1.8462736-2.874 2.875l-.422-.244c-1.43635279-.8252757-3.26963838-.3334186-4.1 1.1l-2 3.464c-.39827562.6894592-.50613019 1.5089663-.29980503 2.2779965.20632517.7690301.70990372 1.4244942 1.39980503 1.8220035l.409.236c-.44952075 1.2813646-.80054114 2.5951838-1.05 3.93h-.472c-1.65685425 0-3 1.3431458-3 3v4c0 1.6568542 1.34314575 3 3 3h.472c.25056629 1.3362772.60292637 2.6514428 1.054 3.934l-.409.236c-.68990131.3975093-1.19347986 1.0529734-1.39980503 1.8220035-.20632516.7690302-.09847059 1.5885373.29980503 2.2779965l2 3.464c.39568135.6915377 1.05188751 1.1957576 1.822 1.4.25614565.0676317.52007913.1012538.785.1.52358178.0005136 1.03798184-.1374877 1.491-.4l.422-.243c.8852535 1.0284185 1.8462736 1.9891043 2.875 2.874l-.244.422c-.8252757 1.4363528-.3334186 3.2696384 1.1 4.1l3.464 2c.6894592.3982756 1.5089663.5061302 2.2779965.299805.7690301-.2063251 1.4244942-.7099037 1.8220035-1.399805l.236-.409c1.2820157.4496188 2.5965071.8006402 3.932 1.05v.472c0 1.6568542 1.3431458 3 3 3h4c1.6568542 0 3-1.3431458 3-3v-.472c1.3362772-.2505663 2.6514428-.6029264 3.934-1.054l.236.409c.3975093.6899013 1.0529734 1.1934799 1.8220035 1.399805.7690302.2063252 1.5885373.0984706 2.2779965-.299805l3.464-2c1.4334186-.8303616 1.9252757-2.6636472 1.1-4.1l-.243-.422c1.0284185-.8852535 1.9891043-1.8462736 2.874-2.875l.422.244c.4530182.2625123.9674182.4005136 1.491.4.2649209.0012538.5288544-.0323683.785-.1.7701125-.2042424 1.4263186-.7084623 1.822-1.4l2-3.464c.3982756-.6894592.5061302-1.5089663.299805-2.2779965-.2063251-.7690301-.7099037-1.4244942-1.399805-1.8220035l-.409-.236c.4501991-1.2813098.8018883-2.5951299 1.052-3.93h.472c1.6568542 0 3-1.3431458 3-3v-4c0-1.6568542-1.3431458-3-3-3zm-5.117-11.1c.4782803-.2761293 1.0898496-.1122682 1.366.366l2 3.464c.2761293.4782803.1122682 1.0898496-.366 1.366l-.151.087c-.8061486-1.8372064-1.8143603-3.5789375-3.006-5.193zm-10.983-8.783c.2761504-.47826816.8877197-.64212934 1.366-.366l3.464 2c.2303526.1319423.3987899.3500623.4681936.6062931.0694036.2562308.0340775.52954295-.0981936.7597069l-.091.157c-1.6134742-1.19199297-3.3549148-2.20023073-5.192-3.006zm-13.9-2.117c0-.55228475.4477153-1 1-1h4c.5522847 0 1 .44771525 1 1v.171c-1.9935014-.22801121-4.0064986-.22801121-6 0zm-13.1 5.117c-.2761293-.47828031-.1122682-1.08984962.366-1.366l3.464-2c.4782803-.27612934 1.0898496-.11226816 1.366.366l.087.151c-1.8372064.80614858-3.5789375 1.8143603-5.193 3.006zm-8.783 10.983c-.47826816-.2761504-.64212934-.8877197-.366-1.366l2-3.464c.1319423-.2303526.3500623-.3987899.6062931-.4681936.2562308-.0694036.52954295-.0340775.7597069.0981936l.157.091c-1.19199297 1.6134742-2.20023073 3.3549148-3.006 5.192zm-2.117 13.9c-.55228475 0-1-.4477153-1-1v-4c0-.5522847.44771525-1 1-1h.171c-.22801121 1.9935014-.22801121 4.0064986 0 6zm5.117 13.1c-.47828031.2761293-1.08984962.1122682-1.366-.366l-2-3.464c-.13387452-.2300374-.17052149-.5039531-.10182594-.7610922.06869556-.2571391.23706526-.4762839.46782594-.6089078l.151-.087c.80614858 1.8372064 1.8143603 3.5789375 3.006 5.193zm10.983 8.783c-.2761504.4782682-.8877197.6421293-1.366.366l-3.464-2c-.4782682-.2761504-.6421293-.8877197-.366-1.366l.091-.157c1.6134742 1.191993 3.3549148 2.2002307 5.192 3.006zm13.9 2.117c0 .5522847-.4477153 1-1 1h-4c-.5522847 0-1-.4477153-1-1v-.171c1.9935014.2280112 4.0064986.2280112 6 0zm13.1-5.117c.2761293.4782803.1122682 1.0898496-.366 1.366l-3.464 2c-.4782803.2761293-1.0898496.1122682-1.366-.366l-.087-.151c1.8372064-.8061486 3.5789375-1.8143603 5.193-3.006zm-16.1 3.117c-13.8071187 0-25-11.1928813-25-25s11.1928813-25 25-25 25 11.1928813 25 25c-.0154309 13.800722-11.199278 24.9845691-25 25zm24.883-14.1c.4782682.2761504.6421293.8877197.366 1.366l-2 3.464c-.2761504.4782682-.8877197.6421293-1.366.366l-.157-.091c1.191993-1.6134742 2.2002307-3.3549148 3.006-5.192zm3.117-8.9c0 .5522847-.4477153 1-1 1h-.171c.2280112-1.9935014.2280112-4.0064986 0-6h.171c.5522847 0 1 .4477153 1 1z" fill="#000"/></g></g></svg>